<svg width="329" height="307" viewBox="0 0 329 307" fill="none" xmlns="http://www.w3.org/2000/svg">
<mask id="path-1-inside-1_130_88" fill="white">
<path d="M123.492 30.7305C126.052 36.7115 132.139 40.3964 138.625 39.8928L292.343 27.9561C301.194 27.2688 308.927 33.8872 309.614 42.7385L326.969 266.228C327.656 275.079 321.038 282.813 312.187 283.5L37.9449 304.796C29.0935 305.483 21.3607 298.864 20.6734 290.013L1.17541 38.9215C0.526249 30.5617 6.77695 23.2585 15.1367 22.6093L105.792 15.5697C112.278 15.066 118.364 18.751 120.925 24.7319L123.492 30.7305Z"/>
</mask>
<path d="M123.492 30.7305C126.052 36.7115 132.139 40.3964 138.625 39.8928L292.343 27.9561C301.194 27.2688 308.927 33.8872 309.614 42.7385L326.969 266.228C327.656 275.079 321.038 282.813 312.187 283.5L37.9449 304.796C29.0935 305.483 21.3607 298.864 20.6734 290.013L1.17541 38.9215C0.526249 30.5617 6.77695 23.2585 15.1367 22.6093L105.792 15.5697C112.278 15.066 118.364 18.751 120.925 24.7319L123.492 30.7305Z" fill="#222237"/>
<path d="M309.614 42.7385L311.11 42.6224L311.11 42.6224L309.614 42.7385ZM37.9449 304.796L38.061 306.291L38.0611 306.291L37.9449 304.796ZM120.925 24.7319L119.546 25.3222L120.925 24.7319ZM138.625 39.8928L138.741 41.3883L292.459 29.4516L292.343 27.9561L292.227 26.4606L138.509 38.3973L138.625 39.8928ZM292.343 27.9561L292.459 29.4516C300.485 28.8284 307.496 34.8292 308.119 42.8547L309.614 42.7385L311.11 42.6224C310.358 32.9452 301.904 25.7091 292.227 26.4606L292.343 27.9561ZM309.614 42.7385L308.119 42.8547L325.474 266.344L326.969 266.228L328.465 266.112L311.11 42.6224L309.614 42.7385ZM326.969 266.228L325.474 266.344C326.097 274.37 320.096 281.382 312.071 282.005L312.187 283.5L312.303 284.996C321.98 284.244 329.216 275.789 328.465 266.112L326.969 266.228ZM312.187 283.5L312.071 282.005L37.8288 303.3L37.9449 304.796L38.0611 306.291L312.303 284.996L312.187 283.5ZM37.9449 304.796L37.8288 303.3C29.8034 303.924 22.7921 297.922 22.1689 289.896L20.6734 290.013L19.1779 290.129C19.9293 299.806 28.3836 307.043 38.061 306.291L37.9449 304.796ZM20.6734 290.013L22.1689 289.896L2.67091 38.8053L1.17541 38.9215L-0.320088 39.0376L19.1779 290.129L20.6734 290.013ZM15.1367 22.6093L15.2529 24.1048L105.908 17.0652L105.792 15.5697L105.676 14.0742L15.0206 21.1138L15.1367 22.6093ZM120.925 24.7319L119.546 25.3222L122.113 31.3208L123.492 30.7305L124.871 30.1402L122.304 24.1417L120.925 24.7319ZM105.792 15.5697L105.908 17.0652C111.753 16.6113 117.238 19.9322 119.546 25.3222L120.925 24.7319L122.304 24.1417C119.49 17.5698 112.803 13.5208 105.676 14.0742L105.792 15.5697ZM1.17541 38.9215L2.67091 38.8053C2.08588 31.2715 7.71901 24.6899 15.2529 24.1048L15.1367 22.6093L15.0206 21.1138C5.83487 21.8271 -1.03339 29.8519 -0.320088 39.0376L1.17541 38.9215ZM138.625 39.8928L138.509 38.3973C132.663 38.8512 127.179 35.5303 124.871 30.1402L123.492 30.7305L122.113 31.3208C124.926 37.8926 131.614 41.9417 138.741 41.3883L138.625 39.8928Z" fill="url(#paint0_linear_130_88)" mask="url(#path-1-inside-1_130_88)"/>
<g clip-path="url(#clip0_130_88)">
<rect x="22.5871" y="95.4835" width="272.388" height="90.2007" rx="11.61" transform="rotate(-4.44027 22.5871 95.4835)" fill="#363649"/>
<rect x="36.8419" y="106.021" width="245.596" height="19.6477" rx="9.82384" transform="rotate(-4.44027 36.8419 106.021)" fill="url(#paint1_linear_130_88)"/>
<rect x="38.7087" y="130.062" width="127.71" height="19.6477" rx="9.82384" transform="rotate(-4.44027 38.7087 130.062)" fill="url(#paint2_linear_130_88)"/>
<rect x="40.5756" y="154.103" width="25.8992" height="19.6477" rx="9.82384" transform="rotate(-4.44027 40.5756 154.103)" fill="url(#paint3_linear_130_88)"/>
<rect x="71.7394" y="151.683" width="175.936" height="19.6477" rx="9.82384" transform="rotate(-4.44027 71.7394 151.683)" fill="url(#paint4_linear_130_88)"/>
</g>
<g clip-path="url(#clip1_130_88)">
<rect x="30.4002" y="196.098" width="272.388" height="90.2007" rx="11.61" transform="rotate(-4.44027 30.4002 196.098)" fill="#363649"/>
<rect x="44.6549" y="206.636" width="245.596" height="19.6477" rx="9.82384" transform="rotate(-4.44027 44.6549 206.636)" fill="url(#paint5_linear_130_88)"/>
<rect x="46.5218" y="230.677" width="127.71" height="19.6477" rx="9.82384" transform="rotate(-4.44027 46.5218 230.677)" fill="url(#paint6_linear_130_88)"/>
<rect x="48.3886" y="254.718" width="25.8992" height="19.6477" rx="9.82384" transform="rotate(-4.44027 48.3886 254.718)" fill="url(#paint7_linear_130_88)"/>
<rect x="79.5524" y="252.298" width="175.936" height="19.6477" rx="9.82384" transform="rotate(-4.44027 79.5524 252.298)" fill="url(#paint8_linear_130_88)"/>
</g>
<path d="M34.0432 65.3893C34.2638 68.2297 32.5004 69.884 29.5229 70.1152L25.7423 70.4088L26.1484 75.639L23.9741 75.8078L22.8911 61.8607L28.846 61.3983C31.8235 61.167 33.8227 62.5489 34.0432 65.3893ZM31.8689 65.5581C31.7274 63.7364 30.6192 62.9159 28.68 63.0665L25.1932 63.3373L25.6145 68.7634L29.1013 68.4926C31.0406 68.342 32.0104 67.3799 31.8689 65.5581ZM39.791 74.7767C37.4795 74.9562 36.2717 73.8675 36.0815 71.419L35.5628 64.7392L37.6392 64.578L38.129 70.8855C38.2477 72.4135 38.857 73.1544 40.287 73.0434C41.7953 72.9262 42.6865 71.714 42.5435 69.8727L42.1055 64.2312L44.1819 64.0699L44.9668 74.1777L42.9883 74.3313L42.8529 72.5879C42.3746 73.7878 41.4756 74.6459 39.791 74.7767ZM52.3089 73.8046C50.5655 73.94 49.4092 73.2612 48.7603 72.011L48.9049 73.8719L46.9264 74.0255L45.8434 60.0784L47.9198 59.9171L48.3518 65.4803C48.8225 64.1825 49.8677 63.4313 51.4936 63.3051C54.2164 63.0936 56.0712 64.9006 56.3283 68.2111C56.5854 71.5216 55.0317 73.5932 52.3089 73.8046ZM51.7156 72.2544C53.3806 72.1251 54.4496 70.9188 54.2519 68.3723C54.0557 65.8454 52.8117 64.799 51.1467 64.9283C49.462 65.0591 48.4141 66.2835 48.6104 68.8104C48.8081 71.3569 50.0309 72.3853 51.7156 72.2544ZM60.3658 72.9819L58.2894 73.1432L57.2063 59.196L59.2827 59.0348L60.3658 72.9819ZM64.4021 72.6685L62.3257 72.8297L61.5408 62.7219L63.6172 62.5607L64.4021 72.6685ZM62.4421 60.8783C61.639 60.9407 61.1715 60.504 61.1229 59.8772C61.0742 59.2504 61.4671 58.7272 62.2702 58.6648C63.0538 58.604 63.5424 59.0587 63.591 59.6855C63.6397 60.3124 63.2257 60.8175 62.4421 60.8783ZM70.8827 72.3623C67.7681 72.6042 65.8273 70.7054 65.5778 67.4928C65.3284 64.2803 66.9528 62.1046 70.0674 61.8628C73.2603 61.6148 74.8093 63.5441 74.9553 65.4246L73.0356 65.5736C72.7424 64.3352 71.9144 63.3156 70.1906 63.4495C68.4276 63.5864 67.4656 64.9026 67.6542 67.3316C67.8444 69.7802 68.9965 70.9125 70.7595 70.7756C72.2678 70.6585 73.1457 69.7824 73.2364 68.1593L75.1561 68.0103C75.3174 70.0867 73.9581 72.1235 70.8827 72.3623ZM80.0733 71.6486C77.7227 71.8312 76.3581 70.7547 76.2121 68.8742C76.095 67.3659 76.9228 66.0995 79.4135 65.6893L81.3602 65.3805C82.546 65.1701 82.8773 64.8685 82.8271 64.2221C82.7373 63.0664 82.0181 62.4325 80.5489 62.5466C79.1777 62.653 78.479 63.2985 78.4784 64.5598L76.4411 64.718C76.2829 62.6808 77.4362 61.2906 80.4137 61.0593C83.3716 60.8297 84.7453 62.0236 84.9035 64.0609L85.2442 68.4487C85.3507 69.8199 85.5367 70.6923 85.7584 71.0101L83.8975 71.1546C83.5536 70.7872 83.4042 70.3849 83.3311 69.4447C82.8831 70.7801 81.8167 71.5133 80.0733 71.6486ZM80.5303 70.1745C82.3129 70.0361 83.1648 68.5708 83.0355 66.9058L82.9685 66.0439C82.7743 66.3348 82.238 66.5341 81.459 66.6537L80.1753 66.8717C78.7349 67.1018 78.214 67.7531 78.2779 68.5758C78.3585 69.614 79.0416 70.2902 80.5303 70.1745ZM90.9428 70.7061C88.8272 70.8703 88.0342 70.3013 87.8744 68.2445L87.4059 62.2112L85.7605 62.3389L85.6449 60.8502L87.2903 60.7224L87.053 57.6666L89.1294 57.5053L89.3667 60.5612L91.6978 60.3802L91.8134 61.8689L89.4823 62.0499L89.9554 68.142C90.0239 69.0235 90.3766 69.2523 91.2973 69.1808L92.3732 69.0776L92.4827 70.4879C92.0744 70.5591 91.3541 70.6741 90.9428 70.7061ZM96.0425 70.2115L93.9661 70.3728L93.1812 60.265L95.2576 60.1037L96.0425 70.2115ZM94.0825 58.4214C93.2793 58.4837 92.8119 58.0471 92.7632 57.4202C92.7145 56.7934 93.1075 56.2702 93.9106 56.2079C94.6941 56.147 95.1827 56.6017 95.2314 57.2286C95.2801 57.8554 94.866 58.3605 94.0825 58.4214ZM102.621 69.8977C99.4084 70.1472 97.4677 68.2484 97.2182 65.0359C96.9687 61.8233 98.5931 59.6477 101.806 59.3982C105.018 59.1487 106.959 61.0475 107.208 64.2601C107.458 67.4726 105.834 69.6483 102.621 69.8977ZM102.498 68.3111C104.359 68.1666 105.322 66.8699 105.132 64.4213C104.943 61.9923 103.79 60.8404 101.929 60.9849C100.068 61.1294 99.106 62.4456 99.2946 64.8746C99.4847 67.3232 100.637 68.4556 102.498 68.3111ZM117.793 68.5225L115.717 68.6838L115.227 62.3762C115.108 60.8483 114.499 60.1073 113.069 60.2184C111.561 60.3355 110.669 61.5477 110.812 63.389L111.251 69.0306L109.174 69.1918L108.389 59.084L110.368 58.9304L110.505 60.6934C110.962 59.4755 111.88 58.6159 113.565 58.4851C115.876 58.3056 117.084 59.3942 117.274 61.8428L117.793 68.5225ZM123.764 68.2559C120.591 68.5023 119.268 67.2059 119.118 65.2666L121.116 65.1114C121.303 66.2595 121.874 67.0035 123.676 66.8636C125.439 66.7267 125.908 65.9217 125.841 65.0598C125.779 64.2566 125.159 63.8909 124.189 63.8283L122.307 63.6986C120.168 63.569 119.209 62.8946 119.079 61.21C118.943 59.4666 119.932 57.9906 122.949 57.7564C125.965 57.5221 127.17 58.8277 127.309 60.6103L125.311 60.7655C125.14 59.8328 124.761 59.0148 123.037 59.1487C121.568 59.2628 121.067 59.9126 121.143 60.8921C121.207 61.7148 121.7 61.9721 122.492 62.0288L124.374 62.1585C126.454 62.2926 127.766 62.9397 127.909 64.781C128.044 66.5244 126.937 68.0095 123.764 68.2559Z" fill="white"/>
<defs>
<linearGradient id="paint0_linear_130_88" x1="163.612" y1="165.047" x2="249.885" y2="40.6592" gradientUnits="userSpaceOnUse">
<stop stop-color="#434343"/>
<stop offset="1" stop-color="#D6CFFF"/>
</linearGradient>
<linearGradient id="paint1_linear_130_88" x1="36.8419" y1="115.845" x2="282.438" y2="115.845" gradientUnits="userSpaceOnUse">
<stop stop-color="#7E7E8C"/>
<stop offset="1" stop-color="#363649"/>
</linearGradient>
<linearGradient id="paint2_linear_130_88" x1="38.7087" y1="139.886" x2="166.419" y2="139.886" gradientUnits="userSpaceOnUse">
<stop stop-color="#7E7E8C"/>
<stop offset="1" stop-color="#363649"/>
</linearGradient>
<linearGradient id="paint3_linear_130_88" x1="40.5756" y1="163.927" x2="66.4748" y2="163.927" gradientUnits="userSpaceOnUse">
<stop stop-color="#7E7E8C"/>
<stop offset="1" stop-color="#363649"/>
</linearGradient>
<linearGradient id="paint4_linear_130_88" x1="71.7394" y1="161.507" x2="247.675" y2="161.507" gradientUnits="userSpaceOnUse">
<stop stop-color="#7E7E8C"/>
<stop offset="1" stop-color="#363649"/>
</linearGradient>
<linearGradient id="paint5_linear_130_88" x1="44.6549" y1="216.46" x2="290.251" y2="216.46" gradientUnits="userSpaceOnUse">
<stop stop-color="#7E7E8C"/>
<stop offset="1" stop-color="#363649"/>
</linearGradient>
<linearGradient id="paint6_linear_130_88" x1="46.5218" y1="240.501" x2="174.232" y2="240.501" gradientUnits="userSpaceOnUse">
<stop stop-color="#7E7E8C"/>
<stop offset="1" stop-color="#363649"/>
</linearGradient>
<linearGradient id="paint7_linear_130_88" x1="48.3886" y1="264.541" x2="74.2878" y2="264.541" gradientUnits="userSpaceOnUse">
<stop stop-color="#7E7E8C"/>
<stop offset="1" stop-color="#363649"/>
</linearGradient>
<linearGradient id="paint8_linear_130_88" x1="79.5524" y1="262.121" x2="255.488" y2="262.121" gradientUnits="userSpaceOnUse">
<stop stop-color="#7E7E8C"/>
<stop offset="1" stop-color="#363649"/>
</linearGradient>
<clipPath id="clip0_130_88">
<rect x="22.5871" y="95.4835" width="272.388" height="90.2007" rx="11.61" transform="rotate(-4.44027 22.5871 95.4835)" fill="white"/>
</clipPath>
<clipPath id="clip1_130_88">
<rect x="30.4002" y="196.098" width="272.388" height="90.2007" rx="11.61" transform="rotate(-4.44027 30.4002 196.098)" fill="white"/>
</clipPath>
</defs>
</svg>
