<svg width="86" height="86" viewBox="0 0 86 86" fill="none" xmlns="http://www.w3.org/2000/svg">
<path d="M15.394 46.3826C17.2573 46.2966 18.834 45.58 20.124 44.2326C21.414 42.8853 22.0733 41.28 22.0733 39.4166C22.0733 41.28 22.704 42.8853 23.994 44.2326C25.284 45.58 26.8607 46.2966 28.724 46.3826C26.8607 46.4686 25.284 47.1853 23.994 48.5326C23.3703 49.1678 22.8793 49.9207 22.5495 50.7476C22.2198 51.5744 22.0579 52.4586 22.0733 53.3486C22.0733 51.4853 21.4426 49.88 20.124 48.5326C18.834 47.1853 17.2573 46.4686 15.394 46.3826ZM22.0733 25.7426C25.6853 25.5706 28.7526 24.166 31.2753 21.5286C33.798 18.8913 35.0593 15.7666 35.0593 12.126C35.0593 15.7666 36.3206 18.8913 38.8433 21.5286C41.366 24.166 44.4333 25.542 48.074 25.7426C45.6946 25.8573 43.516 26.5166 41.5093 27.778C39.5313 29.0106 37.9546 30.6733 36.7793 32.7373C35.6326 34.8013 35.0593 37.0086 35.0593 39.4166C35.0593 35.776 33.798 32.6226 31.2753 29.9853C28.7526 27.3193 25.6853 25.9146 22.0733 25.7426ZM31.5907 56.6166C34.314 56.502 36.636 55.4413 38.528 53.4633C40.42 51.4853 41.366 49.1346 41.366 46.3826C41.366 49.1346 42.312 51.4853 44.204 53.4633C46.096 55.4413 48.3893 56.502 51.1126 56.6166C48.3893 56.7313 46.096 57.792 44.204 59.77C42.312 61.748 41.366 64.0986 41.366 66.8506C41.366 64.0986 40.42 61.748 38.528 59.77C36.7202 57.8474 34.2278 56.7145 31.5907 56.6166ZM51.1126 43.0286C53.836 42.914 56.1293 41.8533 58.0213 39.8753C59.9133 37.8973 60.8306 35.5466 60.8306 32.766C60.8306 35.518 61.7766 37.8686 63.6686 39.8466C65.5606 41.8246 67.8826 42.8853 70.606 43C67.8826 43.1146 65.5606 44.1753 63.6686 46.1533C61.7766 48.1313 60.8306 50.482 60.8306 53.234C60.8306 50.482 59.8846 48.1313 58.0213 46.1533C56.1293 44.204 53.836 43.1433 51.1126 43.0286Z" fill="#EBA82C"/>
</svg>
