<svg width="48" height="50" viewBox="0 0 48 50" fill="none" xmlns="http://www.w3.org/2000/svg">
<g filter="url(#filter0_dii_24_1918)">
<path d="M24 2.5C35.8741 2.5 45.5 12.1259 45.5 24C45.5 35.8741 35.8741 45.5 24 45.5C12.1259 45.5 2.5 35.8741 2.5 24C2.5 12.1259 12.1259 2.5 24 2.5ZM26.5303 17.4697C26.2374 17.1768 25.7626 17.1768 25.4697 17.4697C25.1768 17.7626 25.1768 18.2374 25.4697 18.5303L30.1895 23.25H16C15.5858 23.25 15.25 23.5858 15.25 24C15.25 24.4142 15.5858 24.75 16 24.75H30.1895L25.4697 29.4697C25.1768 29.7626 25.1768 30.2374 25.4697 30.5303C25.7626 30.8232 26.2374 30.8232 26.5303 30.5303L32.5303 24.5303C32.8232 24.2374 32.8232 23.7626 32.5303 23.4697L26.5303 17.4697Z" fill="url(#paint0_linear_24_1918)" fill-opacity="0.8"/>
</g>
<defs>
<filter id="filter0_dii_24_1918" x="-2" y="-1" width="52" height="53" filterUnits="userSpaceOnUse" color-interpolation-filters="sRGB">
<feFlood flood-opacity="0" result="BackgroundImageFix"/>
<feColorMatrix in="SourceAlpha" type="matrix" values="0 0 0 0 0 0 0 0 0 0 0 0 0 0 0 0 0 0 127 0" result="hardAlpha"/>
<feOffset dy="2"/>
<feGaussianBlur stdDeviation="1"/>
<feComposite in2="hardAlpha" operator="out"/>
<feColorMatrix type="matrix" values="0 0 0 0 0.107659 0 0 0 0 0.0769887 0 0 0 0 0.307017 0 0 0 0.2 0"/>
<feBlend mode="normal" in2="BackgroundImageFix" result="effect1_dropShadow_24_1918"/>
<feBlend mode="normal" in="SourceGraphic" in2="effect1_dropShadow_24_1918" result="shape"/>
<feColorMatrix in="SourceAlpha" type="matrix" values="0 0 0 0 0 0 0 0 0 0 0 0 0 0 0 0 0 0 127 0" result="hardAlpha"/>
<feOffset dy="1"/>
<feGaussianBlur stdDeviation="1"/>
<feComposite in2="hardAlpha" operator="arithmetic" k2="-1" k3="1"/>
<feColorMatrix type="matrix" values="0 0 0 0 1 0 0 0 0 1 0 0 0 0 1 0 0 0 1 0"/>
<feBlend mode="normal" in2="shape" result="effect2_innerShadow_24_1918"/>
<feColorMatrix in="SourceAlpha" type="matrix" values="0 0 0 0 0 0 0 0 0 0 0 0 0 0 0 0 0 0 127 0" result="hardAlpha"/>
<feOffset dy="-1"/>
<feGaussianBlur stdDeviation="1"/>
<feComposite in2="hardAlpha" operator="arithmetic" k2="-1" k3="1"/>
<feColorMatrix type="matrix" values="0 0 0 0 0.110359 0 0 0 0 0.0844446 0 0 0 0 0.278802 0 0 0 0.24 0"/>
<feBlend mode="normal" in2="effect2_innerShadow_24_1918" result="effect3_innerShadow_24_1918"/>
</filter>
<linearGradient id="paint0_linear_24_1918" x1="24.0253" y1="0.0812501" x2="24.0254" y2="60.55" gradientUnits="userSpaceOnUse">
<stop offset="0.421906" stop-color="#FCFCFD"/>
<stop offset="1" stop-color="#FCFCFD" stop-opacity="0.44"/>
</linearGradient>
</defs>
</svg>
