<svg width="1440" height="332" viewBox="0 0 1440 332" fill="none" xmlns="http://www.w3.org/2000/svg">
<path d="M23.8641 328.79L35.0503 331.209M23.8641 328.79L57.0135 328.79M23.8641 328.79L12.306 326.292M23.8641 328.79L0.387443 328.79M35.0503 331.209L30.9799 331.208L26.9516 331.203L23.0072 331.188L19.1865 331.159L15.5315 331.112L12.0811 331.041L8.87656 330.943L5.90223 330.817L3.34986 330.644L1.02613 330.443L0.387443 330.372L0.387443 328.79M35.0503 331.209L67.6667 331.209M67.6667 331.209L100.283 331.209M67.6667 331.209L57.0135 328.79M100.283 331.209L132.9 331.209M100.283 331.209L90.1629 328.79M132.9 331.209L165.517 331.209M132.9 331.209L123.312 328.79M165.517 331.209L198.133 331.209M165.517 331.209L156.461 328.79M198.133 331.209L230.75 331.209M198.133 331.209L189.61 328.79M230.75 331.209L263.367 331.209M230.75 331.209L222.76 328.79M263.367 331.209L295.983 331.209M263.367 331.209L255.909 328.79M295.983 331.209L328.6 331.209M295.983 331.209L289.059 328.79M328.6 331.209L361.217 331.209M328.6 331.209L322.208 328.79M361.217 331.209L393.833 331.209M361.217 331.209L355.357 328.79M393.833 331.209L426.45 331.209M393.833 331.209L388.507 328.79M426.45 331.209L459.067 331.209M426.45 331.209L425.266 330.612L423.472 329.707L421.656 328.79M459.067 331.209L491.683 331.209M459.067 331.209L458.015 330.612L454.806 328.79M491.683 331.209L524.3 331.209M491.683 331.209L487.955 328.79M524.3 331.209L556.917 331.209M524.3 331.209L523.114 330.311L521.912 329.403L521.509 329.097L521.104 328.79M556.917 331.209L589.533 331.209M556.917 331.209L555.928 330.311L555.595 330.01L555.262 329.707L554.253 328.79M589.533 331.209L622.15 331.209M589.533 331.209L587.402 328.79M622.15 331.209L621.953 330.911L621.756 330.612L620.755 329.097L620.552 328.79M622.15 331.209L654.766 331.209M654.766 331.209L687.384 331.209M654.766 331.209L653.701 328.79M687.384 331.209L720 331.209M687.384 331.209L687.186 330.311L686.851 328.79M720 331.209L752.616 331.209M720 331.209L720 328.79M752.616 331.209L785.234 331.209M752.616 331.209L752.814 330.311L753.149 328.79M785.234 331.209L817.85 331.209M785.234 331.209L786.299 328.79M817.85 331.209L818.047 330.911L818.244 330.612L819.245 329.097L819.448 328.79M817.85 331.209L850.466 331.209M850.466 331.209L883.084 331.209M850.466 331.209L852.327 329.097L852.598 328.79M883.084 331.209L915.7 331.209M883.084 331.209L884.072 330.311L884.404 330.01L885.073 329.403L885.409 329.097L885.747 328.79M915.7 331.209L948.317 331.209M915.7 331.209L916.886 330.311L918.087 329.403L918.491 329.097L918.896 328.79M948.317 331.209L980.933 331.209M948.317 331.209L952.045 328.79M980.933 331.209L1013.55 331.209M980.933 331.209L981.985 330.612L985.194 328.79M1013.55 331.209L1046.17 331.209M1013.55 331.209L1018.34 328.79M1046.17 331.209L1078.78 331.209M1046.17 331.209L1051.49 328.79M1078.78 331.209L1111.4 331.209M1078.78 331.209L1084.64 328.79M1111.4 331.209L1144.02 331.209M1111.4 331.209L1117.79 328.79M1144.02 331.209L1176.63 331.209M1144.02 331.209L1150.94 328.79M1176.63 331.209L1209.25 331.209M1176.63 331.209L1184.09 328.79M1209.25 331.209L1241.87 331.209M1209.25 331.209L1217.24 328.79M1241.87 331.209L1274.48 331.209M1241.87 331.209L1250.39 328.79M1274.48 331.209L1307.1 331.209M1274.48 331.209L1283.54 328.79M1307.1 331.209L1339.72 331.209M1307.1 331.209L1316.69 328.79M1339.72 331.209L1372.33 331.209M1339.72 331.209L1349.84 328.79M1372.33 331.209L1404.95 331.209M1372.33 331.209L1382.99 328.79M1404.95 331.209L1409.02 331.208L1413.05 331.203L1416.99 331.188L1420.81 331.159L1424.47 331.112L1427.92 331.041L1431.12 330.943L1434.1 330.818L1436.65 330.644L1438.97 330.443L1439.61 330.372L1439.61 328.79M1404.95 331.209L1416.14 328.79M1349.84 328.79L1316.69 328.79M1349.84 328.79L1382.99 328.79M1349.84 328.79L1360.29 326.292M1316.69 328.79L1326.6 326.292M1316.69 328.79L1283.54 328.79M1217.24 328.79L1184.09 328.79M1217.24 328.79L1250.39 328.79M1217.24 328.79L1219.28 328.173L1225.5 326.292M1184.09 328.79L1191.8 326.292M1184.09 328.79L1150.94 328.79M1084.64 328.79L1051.49 328.79M1084.64 328.79L1117.79 328.79M1084.64 328.79L1086.14 328.173L1086.89 327.863L1090.7 326.292M1051.49 328.79L1052.17 328.483L1052.85 328.173L1057 326.292M1051.49 328.79L1018.34 328.79M952.045 328.79L952.52 328.483L955.898 326.292M952.045 328.79L918.896 328.79M952.045 328.79L985.194 328.79M918.896 328.79L919.711 328.173L920.122 327.863L920.533 327.551L922.198 326.292M918.896 328.79L885.747 328.79M819.448 328.79L786.299 328.79M819.448 328.79L852.598 328.79M819.448 328.79L821.099 326.292M786.299 328.79L786.434 328.483L786.57 328.173L786.707 327.863L787.121 326.924L787.399 326.292M786.299 328.79L753.149 328.79M686.851 328.79L653.701 328.79M686.851 328.79L720 328.79M686.851 328.79L686.3 326.292M653.701 328.79L653.566 328.483L653.43 328.173L653.293 327.863L652.601 326.292M653.701 328.79L620.552 328.79M554.253 328.79L521.104 328.79M554.253 328.79L587.402 328.79M554.253 328.79L553.574 328.173L552.198 326.924L551.851 326.609L551.501 326.292M521.104 328.79L520.289 328.173L519.878 327.863L519.466 327.551L517.802 326.292M521.104 328.79L487.955 328.79M421.656 328.79L388.507 328.79M421.656 328.79L454.806 328.79M421.656 328.79L420.433 328.173L419.817 327.863L416.703 326.292M388.507 328.79L387.828 328.483L387.148 328.173L383.003 326.292M388.507 328.79L355.357 328.79M289.059 328.79L255.909 328.79M289.059 328.79L322.208 328.79M289.059 328.79L287.292 328.173L286.403 327.863L281.904 326.292M255.909 328.79L248.204 326.292M255.909 328.79L222.76 328.79M156.461 328.79L123.312 328.79M156.461 328.79L189.61 328.79M156.461 328.79L147.105 326.292M123.312 328.79L113.405 326.292M123.312 328.79L90.1629 328.79M1439.73 306.171L1439.61 306.171M1406.36 306.171L1393.71 309.363M1406.36 306.171L1419.5 302.857M1406.36 306.171L1368.23 306.171M1406.36 306.171L1439.61 306.171M1393.71 309.363L1431.14 309.363M1393.71 309.363L1381.51 312.44M1393.71 309.363L1356.28 309.363M1431.14 309.363L1418.26 312.44M1431.14 309.363L1439.61 309.363M1431.14 309.363L1439.61 307.338M1393.86 318.271L1358.39 318.271M1393.86 318.271L1382.29 321.037M1393.86 318.271L1429.32 318.271M1393.86 318.271L1405.84 315.408M1358.39 318.271L1347.43 321.037M1358.39 318.271L1369.74 315.408M1358.39 318.271L1322.93 318.271M1382.29 321.037L1347.43 321.037M1382.29 321.037L1371.1 323.708M1382.29 321.037L1417.14 321.037M1347.43 321.037L1312.57 321.037M1347.43 321.037L1336.84 323.708M1439.98 255.784L1439.61 255.784M1409.21 255.784L1392.89 261.076M1409.21 255.784L1426.34 250.228M1409.21 255.784L1359.98 255.784M1409.21 255.784L1439.61 255.784M1392.89 261.076L1377.32 266.124M1392.89 261.076L1344.83 261.076M1392.89 261.076L1439.61 261.076M1424.28 266.124L1377.32 266.124M1424.28 266.124L1408.35 270.944M1424.28 266.124L1439.61 266.124M1424.28 266.124L1439.61 261.482M1393.13 275.55L1348.26 275.55M1393.13 275.55L1378.57 279.957M1393.13 275.55L1438.01 275.55M1393.13 275.55L1408.35 270.944M1348.26 275.55L1334.67 279.957M1348.26 275.55L1362.46 270.944M1348.26 275.55L1303.38 275.55M1378.57 279.957L1334.67 279.957M1378.57 279.957L1422.48 279.957M1378.57 279.957L1364.63 284.178M1334.67 279.957L1321.66 284.178M1334.67 279.957L1290.76 279.957M1338.44 292.105L1297.21 292.105M1338.44 292.105L1326.13 295.831M1338.44 292.105L1379.67 292.105M1338.44 292.105L1351.27 288.223M1297.21 292.105L1285.72 295.831M1297.21 292.105L1309.18 288.223M1297.21 292.105L1255.98 292.105M1326.13 295.831L1285.72 295.831M1326.13 295.831L1366.54 295.831M1326.13 295.831L1314.3 299.412M1285.72 295.831L1274.68 299.412M1285.72 295.831L1245.31 295.831M1291.97 306.171L1253.84 306.171M1291.97 306.171L1281.42 309.363M1291.97 306.171L1330.1 306.171M1291.97 306.171L1302.92 302.857M1253.84 306.171L1243.99 309.363M1253.84 306.171L1264.06 302.857M1253.84 306.171L1215.71 306.171M1281.42 309.363L1243.99 309.363M1281.42 309.363L1318.85 309.363M1281.42 309.363L1271.26 312.44M1243.99 309.363L1234.51 312.44M1243.99 309.363L1206.57 309.363M1251.99 318.271L1216.53 318.271M1251.99 318.271L1242.86 321.037M1251.99 318.271L1287.46 318.271M1251.99 318.271L1261.45 315.408M1216.53 318.271L1208 321.037M1216.53 318.271L1225.36 315.408M1216.53 318.271L1181.06 318.271M1242.86 321.037L1208 321.037M1242.86 321.037L1234.03 323.708M1242.86 321.037L1277.71 321.037M1208 321.037L1173.14 321.037M1208 321.037L1199.76 323.708M1414.39 164.026L1391.42 174.454M1414.39 164.026L1438.99 152.858M1414.39 164.026L1344.95 164.026M1414.39 164.026L1439.61 164.026M1391.42 174.454L1369.92 184.215M1391.42 174.454L1324.28 174.454M1391.42 174.454L1439.61 174.454M1391.89 201.975L1330.81 201.975M1391.89 201.975L1372.26 210.076M1391.89 201.975L1412.73 193.37M1391.89 201.975L1439.61 201.975M1330.81 201.975L1312.96 210.076M1330.81 201.975L1349.76 193.37M1330.81 201.975L1269.73 201.975M1372.26 210.076L1312.96 210.076M1372.26 210.076L1431.56 210.076M1372.26 210.076L1353.75 217.718M1312.96 210.076L1296.13 217.718M1312.96 210.076L1253.67 210.076M1319.7 231.77L1265.18 231.77M1319.7 231.77L1304.01 238.245M1319.7 231.77L1374.22 231.77M1319.7 231.77L1336.25 224.938M1265.18 231.77L1250.92 238.245M1265.18 231.77L1280.23 224.938M1265.18 231.77L1210.66 231.77M1304.01 238.245L1250.92 238.245M1304.01 238.245L1357.11 238.245M1304.01 238.245L1289.13 244.389M1250.92 238.245L1237.39 244.389M1250.92 238.245L1197.83 238.245M1261.52 255.784L1212.29 255.784M1261.52 255.784L1248.7 261.076M1261.52 255.784L1310.75 255.784M1261.52 255.784L1274.98 250.228M1212.29 255.784L1200.64 261.076M1212.29 255.784L1224.53 250.228M1212.29 255.784L1163.06 255.784M1248.7 261.076L1200.64 261.076M1248.7 261.076L1296.76 261.076M1248.7 261.076L1236.47 266.124M1200.64 261.076L1189.52 266.124M1200.64 261.076L1152.57 261.076M1213.63 275.55L1168.76 275.55M1213.63 275.55L1202.95 279.957M1213.63 275.55L1258.51 275.55M1213.63 275.55L1224.79 270.944M1168.76 275.55L1159.05 279.957M1168.76 275.55L1178.9 270.944M1168.76 275.55L1123.88 275.55M1202.95 279.957L1159.05 279.957M1202.95 279.957L1246.86 279.957M1202.95 279.957L1192.73 284.178M1159.05 279.957L1149.75 284.178M1159.05 279.957L1115.14 279.957M1173.52 292.105L1132.3 292.105M1173.52 292.105L1164.5 295.831M1173.52 292.105L1214.75 292.105M1173.52 292.105L1182.93 288.223M1132.3 292.105L1131.25 292.579L1124.09 295.831M1132.3 292.105L1140.84 288.223M1132.3 292.105L1091.07 292.105M1164.5 295.831L1124.09 295.831M1164.5 295.831L1204.9 295.831M1164.5 295.831L1155.82 299.412M1124.09 295.831L1116.2 299.412M1124.09 295.831L1083.68 295.831M1139.44 306.171L1101.31 306.171M1139.44 306.171L1131.71 309.363M1139.44 306.171L1177.58 306.171M1139.44 306.171L1147.48 302.857M1101.31 306.171L1094.28 309.363M1101.31 306.171L1104.02 304.943L1108.61 302.857M1101.31 306.171L1063.18 306.171M1131.71 309.363L1094.28 309.363M1131.71 309.363L1169.14 309.363M1131.71 309.363L1124.26 312.44M1094.28 309.363L1087.51 312.44M1094.28 309.363L1056.85 309.363M1110.13 318.271L1074.66 318.271M1110.13 318.271L1103.43 321.037M1110.13 318.271L1145.59 318.271M1110.13 318.271L1117.07 315.408M1074.66 318.271L1070.07 320.354L1069.32 320.696L1068.57 321.037M1074.66 318.271L1080.97 315.408M1074.66 318.271L1039.2 318.271M1103.43 321.037L1068.57 321.037M1103.43 321.037L1096.96 323.708M1103.43 321.037L1138.29 321.037M1068.57 321.037L1033.71 321.037M1068.57 321.037L1062.69 323.708M1389.23 45.2279L1293.63 45.2279M1389.23 45.2279L1359.13 64.7534M1389.23 45.2279L1422.31 23.7719M1389.23 45.2279L1439.61 45.2275M1293.63 45.2279L1267.82 64.7534M1293.63 45.2279L1321.98 23.7719M1293.63 45.2279L1198.02 45.2279M1359.13 64.7534L1267.82 64.7534M1359.13 64.7534L1331.62 82.5979M1359.13 64.7534L1439.61 64.7534M1267.82 64.7534L1244.24 82.5979M1267.82 64.7534L1176.52 64.7534M1283.13 114.043L1202.69 114.043M1283.13 114.043L1261.67 127.968M1283.13 114.043L1363.58 114.043M1283.13 114.043L1306.37 98.9695M1202.69 114.043L1184.28 127.968M1202.69 114.043L1222.61 98.9695M1202.69 114.043L1122.24 114.043M1261.67 127.968L1184.28 127.968M1261.67 127.968L1339.05 127.968M1261.67 127.968L1241.77 140.87M1184.28 127.968L1167.23 140.87M1184.28 127.968L1106.9 127.968M1206.07 164.026L1136.63 164.026M1206.07 164.026L1189.99 174.454M1206.07 164.026L1275.51 164.026M1206.07 164.026L1223.29 152.858M1136.63 164.026L1122.85 174.454M1136.63 164.026L1151.39 152.858M1136.63 164.026L1067.2 164.026M1189.99 174.454L1122.85 174.454M1189.99 174.454L1257.14 174.454M1189.99 174.454L1174.95 184.215M1122.85 174.454L1109.95 184.215M1122.85 174.454L1055.71 174.454M1147.57 201.975L1086.48 201.975M1147.57 201.975L1135.07 210.076M1147.57 201.975L1208.65 201.975M1147.57 201.975L1160.83 193.37M1086.48 201.975L1075.78 210.076M1086.48 201.975L1097.85 193.37M1086.48 201.975L1025.4 201.975M1135.07 210.076L1075.78 210.076M1135.07 210.076L1194.37 210.076M1135.07 210.076L1123.29 217.718M1075.78 210.076L1065.68 217.718M1075.78 210.076L1016.48 210.076M1101.63 231.77L1047.11 231.77M1101.63 231.77L1091.65 238.244M1101.63 231.77L1156.15 231.77M1101.63 231.77L1112.16 224.938M1047.11 231.77L1038.55 238.244M1047.11 231.77L1056.14 224.938M1047.11 231.77L992.591 231.77M1091.65 238.244L1038.55 238.244M1091.65 238.244L1144.74 238.244M1091.65 238.244L1082.17 244.389M1038.55 238.244L1030.43 244.389M1038.55 238.244L985.461 238.244M1064.6 255.784L1015.38 255.784M1064.6 255.784L1056.44 261.076M1064.6 255.784L1113.83 255.784M1064.6 255.784L1073.17 250.228M1015.38 255.784L1008.38 261.076M1015.38 255.784L1022.72 250.228M1015.38 255.784L966.146 255.784M1056.44 261.076L1008.38 261.076M1056.44 261.076L1104.51 261.076M1056.44 261.076L1048.66 266.124M1008.38 261.076L1001.71 266.124M1008.38 261.076L960.318 261.076M1034.13 275.55L989.253 275.55M1034.13 275.55L1027.33 279.957M1034.13 275.55L1079 275.55M1034.13 275.55L1041.23 270.944M989.253 275.55L983.43 279.957M989.253 275.55L995.341 270.944M989.253 275.55L944.378 275.55M1027.33 279.957L983.43 279.957M1027.33 279.957L1071.24 279.957M1027.33 279.957L1020.83 284.178M983.43 279.957L977.852 284.178M983.43 279.957L939.524 279.957M1008.61 292.105L967.376 292.105M1008.61 292.105L1002.86 295.831M1008.61 292.105L1049.84 292.105M1008.61 292.105L1014.59 288.223M967.376 292.105L968.007 291.628L972.506 288.223M967.376 292.105L962.452 295.831M967.376 292.105L926.147 292.105M1002.86 295.831L962.452 295.831M1002.86 295.831L1043.27 295.831M1002.86 295.831L997.339 299.412M962.452 295.831L957.719 299.412M962.452 295.831L922.043 295.831M986.919 306.171L948.788 306.171M986.919 306.171L981.997 309.363M986.919 306.171L1025.05 306.171M986.919 306.171L992.029 302.857M948.788 306.171L944.569 309.363M948.788 306.171L950.411 304.943L951.506 304.114L953.168 302.857M948.788 306.171L910.657 306.171M981.997 309.363L944.569 309.363M981.997 309.363L1019.43 309.363M981.997 309.363L977.254 312.44M944.569 309.363L943.027 310.53L942.01 311.3L940.503 312.44M944.569 309.363L907.141 309.363M968.263 318.271L932.798 318.271M968.263 318.271L965.052 320.354L964 321.037M968.263 318.271L1003.73 318.271M968.263 318.271L972.118 315.771L972.678 315.408M932.798 318.271L930.044 320.354L929.593 320.696L929.143 321.037M932.798 318.271L934.673 316.852L936.582 315.407M932.798 318.271L897.331 318.271M964 321.037L929.143 321.037M964 321.037L959.881 323.708M964 321.037L998.857 321.037M929.143 321.037L894.286 321.037M929.143 321.037L925.612 323.708M1006.81 45.2279L911.209 45.2279M1006.81 45.2279L993.912 64.7533M1006.81 45.2279L1102.42 45.2279M1006.81 45.2279L1020.99 23.7718M911.209 45.2279L902.608 64.7533M911.209 45.2279L920.66 23.7718M911.209 45.2279L815.604 45.2279M993.912 64.7533L902.608 64.7533M993.912 64.7533L1085.22 64.7534M993.912 64.7533L982.121 82.5978M902.608 64.7533L894.747 82.5978M902.608 64.7533L811.304 64.7533M961.343 114.043L880.896 114.043M961.343 114.043L952.142 127.968M961.343 114.043L1041.79 114.043M961.343 114.043L971.304 98.9695M880.896 114.043L874.762 127.968M880.896 114.043L887.535 98.9695M880.896 114.043L800.447 114.043M952.142 127.968L874.762 127.968M952.142 127.968L1029.52 127.968M952.142 127.968L943.617 140.87M874.762 127.968L869.078 140.87M874.762 127.968L797.381 127.968M928.317 164.026L858.878 164.026M928.317 164.026L921.426 174.454M928.317 164.026L997.756 164.026M928.317 164.026L935.696 152.858M858.878 164.026L854.284 174.454M858.878 164.026L863.797 152.858M858.878 164.026L789.439 164.026M921.426 174.454L854.284 174.454M921.426 174.454L988.568 174.454M921.426 174.454L914.977 184.215M854.284 174.454L849.984 184.215M854.284 174.454L787.142 174.454M903.242 201.975L842.162 201.975M903.242 201.975L897.889 210.076M903.242 201.975L964.323 201.975M903.242 201.975L908.927 193.37M842.162 201.975L838.593 210.076M842.162 201.975L845.952 193.37M842.162 201.975L781.081 201.975M897.889 210.076L838.593 210.076M897.889 210.076L957.185 210.076M897.889 210.076L892.84 217.718M838.593 210.076L835.226 217.718M838.593 210.076L779.296 210.076M883.555 231.77L829.036 231.77M883.555 231.77L879.277 238.244M883.555 231.77L938.073 231.77M883.555 231.77L888.069 224.938M829.036 231.77L826.185 238.244M829.036 231.77L832.046 224.938M829.036 231.77L774.518 231.77M879.277 238.244L826.185 238.244M879.277 238.244L932.369 238.244M879.277 238.244L875.217 244.389M826.185 238.244L823.478 244.389M826.185 238.244L773.092 238.244M867.688 255.784L818.459 255.784M867.688 255.784L864.191 261.076M867.688 255.784L916.917 255.784M867.688 255.784L871.358 250.228M818.459 255.784L816.127 261.076M818.459 255.784L820.906 250.228M818.459 255.784L769.229 255.784M864.191 261.076L816.127 261.076M864.191 261.076L912.254 261.076M864.191 261.076L862.921 262.997L860.855 266.124M816.127 261.076L813.903 266.124M816.127 261.076L768.063 261.076M854.627 275.55L809.751 275.55M854.627 275.55L851.714 279.957M854.627 275.55L899.503 275.55M854.627 275.55L856.896 272.115L857.671 270.944M809.751 275.55L809.013 277.226L807.81 279.957M809.751 275.55L811.781 270.944M809.751 275.55L764.875 275.55M851.714 279.957L851.36 280.495L848.926 284.178M851.714 279.957L807.81 279.957M851.714 279.957L895.62 279.957M807.81 279.957L807.103 281.561L806.871 282.09L806.638 282.616L805.951 284.178M807.81 279.957L763.905 279.957M843.689 292.105L802.459 292.105M843.689 292.105L842.445 293.987L842.138 294.451L841.833 294.914L841.528 295.373L841.226 295.831M843.689 292.105L884.918 292.105M843.689 292.105L846.253 288.223M802.459 292.105L801.222 294.914L801.019 295.373L800.818 295.831M802.459 292.105L804.168 288.223M802.459 292.105L761.229 292.105M841.226 295.831L800.818 295.831M841.226 295.831L881.635 295.831M841.226 295.831L839.736 298.086L839.443 298.53L838.86 299.412M800.818 295.831L799.824 298.086L799.628 298.53L799.434 298.973L799.24 299.412M800.818 295.831L760.408 295.831M834.394 306.171L796.262 306.171M834.394 306.171L832.284 309.363M834.394 306.171L872.526 306.171M834.394 306.171L834.934 305.354L835.753 304.114L836.584 302.857M796.262 306.171L796.442 305.764L797.537 303.278L797.723 302.857M796.262 306.171L794.856 309.363M796.262 306.171L758.131 306.171M832.284 309.363L794.856 309.363M832.284 309.363L869.712 309.363M832.284 309.363L830.251 312.44M794.856 309.363L794.342 310.53L794.172 310.916L794.003 311.3L793.501 312.44M794.856 309.363L757.428 309.363M826.398 318.271L790.933 318.271M826.398 318.271L825.022 320.354L824.572 321.037M826.398 318.271L861.865 318.271M826.398 318.271L827.101 317.209L827.336 316.852L827.574 316.493L828.291 315.407M790.933 318.271L790.778 318.622L790.471 319.32L790.166 320.011L789.715 321.037M790.933 318.271L791.558 316.852L791.715 316.493L792.034 315.771L792.194 315.407M790.933 318.271L755.466 318.271M824.572 321.037L789.715 321.037M824.572 321.037L823.024 323.379L822.806 323.708M824.572 321.037L859.429 321.037M789.715 321.037L789.565 321.376L789.416 321.713L789.268 322.049L789.121 322.384L788.682 323.379L788.537 323.708M789.715 321.037L754.857 321.037M624.396 45.2278L528.791 45.2278M624.396 45.2278L628.696 64.7533M624.396 45.2278L720 45.2279M624.396 45.2278L619.67 23.7718M528.791 45.2278L537.392 64.7533M528.791 45.2278L519.34 23.7718M528.791 45.2278L433.186 45.2278M628.696 64.7533L537.392 64.7533M628.696 64.7533L720 64.7533M628.696 64.7533L632.626 82.5978M537.392 64.7533L545.253 82.5978M537.392 64.7533L446.088 64.7533M639.553 114.043L559.104 114.043M639.553 114.043L642.619 127.968M639.553 114.043L720 114.043M639.553 114.043L636.232 98.9695M559.104 114.043L565.238 127.968M559.104 114.043L552.464 98.9695M559.104 114.043L478.657 114.043M642.619 127.968L565.238 127.968M642.619 127.968L720 127.968M642.619 127.968L645.461 140.87M565.238 127.968L570.922 140.87M565.238 127.968L487.858 127.968M650.561 164.026L581.122 164.026M650.561 164.026L652.858 174.454M650.561 164.026L720 164.026M650.561 164.026L648.101 152.858M581.122 164.026L585.716 174.454M581.122 164.026L576.203 152.858M581.122 164.026L511.683 164.026M652.858 174.454L585.716 174.454M652.858 174.454L720 174.454M652.858 174.454L655.008 184.215M585.716 174.454L590.015 184.215M585.716 174.454L518.574 174.454M658.919 201.975L597.838 201.975M658.919 201.975L660.704 210.076M658.919 201.975L720 201.975M658.919 201.975L657.024 193.37M597.838 201.975L601.407 210.076M597.838 201.975L594.048 193.37M597.838 201.975L536.758 201.975M660.704 210.076L601.407 210.076M660.704 210.076L720 210.076M660.704 210.076L662.387 217.718M601.407 210.076L604.774 217.718M601.407 210.076L542.111 210.076M665.482 231.77L610.964 231.77M665.482 231.77L666.908 238.244M665.482 231.77L720 231.77M665.482 231.77L663.977 224.938M610.964 231.77L613.815 238.244M610.964 231.77L607.954 224.938M610.964 231.77L556.445 231.77M666.908 238.244L613.815 238.244M666.908 238.244L720 238.244M666.908 238.244L668.261 244.389M613.815 238.244L616.522 244.389M613.815 238.244L560.723 238.244M670.771 255.784L621.541 255.784M670.771 255.784L671.937 261.076M670.771 255.784L720 255.784M670.771 255.784L669.547 250.228M621.541 255.784L623.873 261.076M621.541 255.784L619.094 250.228M621.541 255.784L572.312 255.784M671.937 261.076L623.873 261.076M671.937 261.076L720 261.076M671.937 261.076L673.048 266.124M623.873 261.076L626.097 266.124M623.873 261.076L575.809 261.076M675.125 275.55L630.249 275.55M675.125 275.55L676.095 279.957M675.125 275.55L720 275.55M675.125 275.55L674.11 270.944M630.249 275.55L631.952 279.417L632.19 279.957M630.249 275.55L628.219 270.944M630.249 275.55L585.373 275.55M676.095 279.957L676.213 280.495L677.025 284.178M676.095 279.957L632.19 279.957M676.095 279.957L720 279.957M632.19 279.957L632.897 281.561L633.129 282.09L633.362 282.616L634.049 284.178M632.19 279.957L588.285 279.957M678.771 292.104L637.541 292.104M678.771 292.104L679.591 295.831M678.771 292.104L720 292.105M678.771 292.104L678.454 290.668L678.347 290.184L678.241 289.698L678.025 288.717L677.915 288.223M637.541 292.104L638.778 294.914L639.183 295.831M637.541 292.104L635.832 288.223M637.541 292.104L596.311 292.104M679.591 295.831L639.183 295.831M679.591 295.831L720 295.831M679.591 295.831L680.38 299.412M639.183 295.831L640.175 298.086L640.372 298.53L640.566 298.973L640.76 299.412M639.183 295.831L598.774 295.831M681.869 306.171L643.738 306.171M681.869 306.171L682.572 309.363M681.869 306.171L720 306.171M681.869 306.171L681.139 302.857M643.738 306.171L643.558 305.764L642.463 303.278L642.277 302.857M643.738 306.171L645.144 309.363M643.738 306.171L605.606 306.171M682.572 309.363L645.144 309.363M682.572 309.363L720 309.363M682.572 309.363L683.249 312.44M645.144 309.363L645.658 310.53L645.827 310.916L645.997 311.3L646.499 312.44M645.144 309.363L607.716 309.363M684.533 318.271L649.067 318.271M684.533 318.271L685.143 321.037M684.533 318.271L720 318.271M684.533 318.271L683.903 315.407M649.067 318.271L649.222 318.622L649.53 319.32L649.682 319.666L649.985 320.354L650.135 320.696L650.286 321.037M649.067 318.271L648.442 316.852L648.285 316.493L647.966 315.771L647.806 315.407M649.067 318.271L613.602 318.271M685.143 321.037L685.217 321.376L685.292 321.713L685.366 322.049L685.731 323.708M685.143 321.037L650.286 321.037M685.143 321.037L720 321.037M650.286 321.037L615.428 321.037M650.286 321.037L650.584 321.713L650.732 322.049L650.879 322.384L651.318 323.379L651.463 323.708M241.977 45.2278L146.373 45.2278M241.977 45.2278L263.48 64.7533M241.977 45.2278L337.581 45.2278M241.977 45.2278L218.348 23.7718M146.373 45.2278L172.176 64.7533M146.373 45.2278L118.019 23.7718M146.373 45.2278L50.7679 45.2278M263.48 64.7533L172.176 64.7533M263.48 64.7533L354.784 64.7533M263.48 64.7533L283.131 82.5978M172.176 64.7533L195.758 82.5978M172.176 64.7533L80.8717 64.7533M317.761 114.043L237.313 114.043M317.761 114.043L333.096 127.968M317.761 114.043L398.209 114.043M317.761 114.043L301.161 98.9695M237.313 114.043L255.715 127.968M237.313 114.043L217.393 98.9695M237.313 114.043L156.866 114.043M333.096 127.968L255.715 127.968M333.096 127.968L410.477 127.968M333.096 127.968L347.305 140.87M255.715 127.968L272.765 140.87M255.715 127.968L178.334 127.968M372.804 164.026L303.365 164.026M372.804 164.026L384.29 174.454M372.804 164.026L442.244 164.026M372.804 164.026L360.506 152.858M303.365 164.026L317.147 174.454M303.365 164.026L288.607 152.858M303.365 164.026L233.927 164.026M384.29 174.454L317.147 174.454M384.29 174.454L451.432 174.454M384.29 174.454L395.039 184.215M317.147 174.454L330.046 184.215M317.147 174.454L250.005 174.454M414.596 201.975L353.516 201.975M414.596 201.975L423.518 210.076M414.596 201.975L475.677 201.975M414.596 201.975L405.121 193.37M353.516 201.975L364.222 210.076M353.516 201.975L342.145 193.37M353.516 201.975L292.435 201.975M423.518 210.076L364.222 210.076M423.518 210.076L482.815 210.076M423.518 210.076L431.934 217.718M364.222 210.076L374.321 217.718M364.222 210.076L304.926 210.076M447.409 231.77L392.89 231.77M447.409 231.77L454.539 238.244M447.409 231.77L501.927 231.77M447.409 231.77L439.885 224.938M392.89 231.77L401.446 238.244M392.89 231.77L383.862 224.938M392.89 231.77L338.371 231.77M454.539 238.244L401.446 238.244M454.539 238.244L507.631 238.244M454.539 238.244L461.305 244.389M401.446 238.244L409.566 244.389M401.446 238.244L348.354 238.244M473.854 255.784L424.625 255.784M473.854 255.784L479.682 261.076M473.854 255.784L523.083 255.784M473.854 255.784L467.735 250.228M424.625 255.784L431.619 261.076M424.625 255.784L417.282 250.228M424.625 255.784L375.396 255.784M479.682 261.076L431.619 261.076M479.682 261.076L527.746 261.076M479.682 261.076L485.241 266.124M431.619 261.076L438.29 266.124M431.619 261.076L383.556 261.076M495.622 275.55L495 274.985L494.374 274.418L490.549 270.944M495.622 275.55L450.746 275.55M495.622 275.55L500.475 279.957M495.622 275.55L540.497 275.55M450.746 275.55L456.57 279.957M450.746 275.55L444.659 270.944M450.746 275.55L405.87 275.55M500.475 279.957L456.57 279.957M500.475 279.957L544.38 279.957M500.475 279.957L505.123 284.178M456.57 279.957L462.148 284.178M456.57 279.957L412.665 279.957M513.853 292.104L472.623 292.104M513.853 292.104L517.957 295.831M513.853 292.104L555.082 292.104M513.853 292.104L509.579 288.223M472.623 292.104L475.725 294.451L477.548 295.831M472.623 292.104L467.494 288.223M472.623 292.104L431.393 292.104M517.957 295.831L477.548 295.831M517.957 295.831L558.365 295.831M517.957 295.831L521.415 298.973L521.9 299.412M477.548 295.831L482.28 299.412M477.548 295.831L437.139 295.831M529.343 306.171L491.212 306.171M529.343 306.171L530.234 306.981L532.859 309.363M529.343 306.171L567.474 306.171M529.343 306.171L528.444 305.354L526.618 303.697L525.693 302.857M491.212 306.171L495.431 309.363M491.212 306.171L489.589 304.943L488.494 304.114L486.832 302.857M491.212 306.171L453.081 306.171M532.859 309.363L495.431 309.363M532.859 309.363L570.288 309.363M532.859 309.363L535.412 311.682L536.248 312.44M495.431 309.363L496.973 310.53L497.99 311.3L499.497 312.44M495.431 309.363L458.003 309.363M542.669 318.271L507.202 318.271M542.669 318.271L544.585 320.011L545.714 321.037M542.669 318.271L578.135 318.271M542.669 318.271L539.515 315.407M507.202 318.271L509.956 320.354L510.407 320.696L510.857 321.037M507.202 318.271L505.327 316.852L503.418 315.407M507.202 318.271L471.737 318.271M545.714 321.037L510.857 321.037M545.714 321.037L547.198 322.384L547.93 323.049L548.294 323.379L548.656 323.708M545.714 321.037L580.571 321.037M510.857 321.037L476 321.037M510.857 321.037L514.388 323.708M23.5726 127.968L100.953 127.968M23.5726 127.968L49.1472 140.87M23.5726 127.968L0.387462 127.968M23.5726 127.968L0.387463 116.272M95.048 164.026L25.6091 164.026M95.048 164.026L115.72 174.454M95.048 164.026L164.487 164.026M95.048 164.026L72.9109 152.858M25.6091 164.026L48.5783 174.454M25.6091 164.026L1.01186 152.858M25.6091 164.026L0.387459 164.026M115.72 174.454L48.5783 174.454M115.72 174.454L182.862 174.454M115.72 174.454L135.07 184.215M48.5783 174.454L70.0775 184.215M48.5783 174.454L0.387458 174.454M170.274 201.975L109.193 201.975M170.274 201.975L186.333 210.076M170.274 201.975L231.355 201.975M170.274 201.975L153.217 193.37M109.193 201.975L127.036 210.076M109.193 201.975L90.2416 193.37M109.193 201.975L48.112 201.975M186.333 210.076L127.036 210.076M186.333 210.076L245.629 210.076M186.333 210.076L201.481 217.718M127.036 210.076L143.868 217.718M127.036 210.076L67.7402 210.076M229.335 231.77L174.817 231.77M229.335 231.77L242.169 238.244M229.335 231.77L283.853 231.77M229.335 231.77L215.792 224.938M174.817 231.77L189.077 238.244M174.817 231.77L159.769 224.938M174.817 231.77L120.298 231.77M242.169 238.244L189.077 238.244M242.169 238.244L295.261 238.244M242.169 238.244L254.349 244.389M189.077 238.244L202.611 244.389M189.077 238.244L135.985 238.244M276.937 255.784L227.708 255.784M276.937 255.784L287.428 261.076M276.937 255.784L326.166 255.784M276.937 255.784L265.924 250.228M227.708 255.784L239.365 261.076M227.708 255.784L215.471 250.228M227.708 255.784L178.479 255.784M287.428 261.076L239.365 261.076M287.428 261.076L335.492 261.076M287.428 261.076L297.434 266.124M239.365 261.076L250.483 266.124M239.365 261.076L191.301 261.076M316.119 275.55L271.244 275.55M316.119 275.55L324.856 279.957M316.119 275.55L360.995 275.55M316.119 275.55L306.988 270.944M271.244 275.55L280.951 279.957M271.244 275.55L261.098 270.944M271.244 275.55L226.368 275.55M324.856 279.957L280.951 279.957M324.856 279.957L368.76 279.957M324.856 279.957L333.222 284.178M280.951 279.957L290.247 284.178M280.951 279.957L237.046 279.957M348.935 292.104L307.705 292.104M348.935 292.104L356.322 295.831M348.935 292.104L390.164 292.104M348.935 292.104L341.241 288.223M307.705 292.104L315.913 295.831M307.705 292.104L299.156 288.223M307.705 292.104L266.475 292.104M356.322 295.831L315.913 295.831M356.322 295.831L396.731 295.831M356.322 295.831L363.421 299.412M315.913 295.831L323.801 299.412M315.913 295.831L275.504 295.831M376.818 306.171L338.687 306.171M376.818 306.171L383.146 309.363M376.818 306.171L414.949 306.171M376.818 306.171L375.198 305.354L374.384 304.943L370.247 302.857M338.687 306.171L345.718 309.363M338.687 306.171L331.386 302.857M338.687 306.171L300.556 306.171M383.146 309.363L345.718 309.363M383.146 309.363L420.574 309.363M383.146 309.363L389.245 312.44M345.718 309.363L352.495 312.44M345.718 309.363L308.29 309.363M400.804 318.271L365.338 318.271M400.804 318.271L406.286 321.037M400.804 318.271L436.27 318.271M400.804 318.271L395.127 315.407M365.338 318.271L369.926 320.354L370.678 320.696L371.429 321.037M365.338 318.271L359.03 315.407M365.338 318.271L329.872 318.271M406.286 321.037L371.429 321.037M406.286 321.037L410.929 323.379L411.582 323.708M406.286 321.037L441.143 321.037M371.429 321.037L336.571 321.037M371.429 321.037L377.313 323.708M11.2618 231.77L29.8002 238.244M11.2618 231.77L65.7801 231.77M11.2618 231.77L0.387453 227.972M11.2618 231.77L0.387452 231.77M29.8002 238.244L82.8926 238.244M29.8002 238.244L47.3931 244.389M29.8002 238.244L0.387452 238.244M80.0201 255.784L30.7903 255.784M80.0201 255.784L95.1747 261.076M80.0201 255.784L129.249 255.784M80.0201 255.784L64.1121 250.228M30.7903 255.784L47.1106 261.076M30.7903 255.784L13.6591 250.228M30.7903 255.784L0.38745 255.784M95.1747 261.076L47.1106 261.076M95.1747 261.076L143.238 261.076M95.1747 261.076L109.628 266.124M47.1106 261.076L62.6759 266.124M47.1106 261.076L0.387449 261.076M136.617 275.55L91.7408 275.55M136.617 275.55L149.236 279.957M136.617 275.55L181.492 275.55M136.617 275.55L123.427 270.944M91.7408 275.55L105.331 279.957M91.7408 275.55L77.5374 270.944M91.7408 275.55L46.8654 275.55M149.236 279.957L105.331 279.957M149.236 279.957L193.141 279.957M149.236 279.957L161.321 284.178M105.331 279.957L118.345 284.178M105.331 279.957L61.4256 279.957M184.017 292.104L142.788 292.104M184.017 292.104L194.687 295.831M184.017 292.104L225.246 292.104M184.017 292.104L172.904 288.223M142.788 292.104L154.278 295.831M142.788 292.104L130.819 288.223M142.788 292.104L101.557 292.104M194.687 295.831L154.278 295.831M194.687 295.831L235.096 295.831M194.687 295.831L204.941 299.412M154.278 295.831L165.321 299.412M154.278 295.831L113.87 295.831M224.293 306.171L186.161 306.171M224.293 306.171L233.433 309.363M224.293 306.171L262.424 306.171M224.293 306.171L214.802 302.857M186.161 306.171L196.005 309.363M186.161 306.171L175.941 302.856M186.161 306.171L148.03 306.171M233.433 309.363L196.005 309.363M233.433 309.363L270.862 309.363M233.433 309.363L242.243 312.44M196.005 309.363L205.493 312.44M196.005 309.363L158.577 309.363M258.939 318.271L223.473 318.271M258.939 318.271L266.857 321.037M258.939 318.271L294.405 318.271M258.939 318.271L250.74 315.407M223.473 318.271L232 321.037M223.473 318.271L214.642 315.407M223.473 318.271L188.006 318.271M266.857 321.037L232 321.037M266.857 321.037L274.507 323.708M266.857 321.037L301.714 321.037M232 321.037L197.142 321.037M232 321.037L240.239 323.708M19.099 292.104L33.0526 295.831M19.099 292.104L60.3282 292.104M19.099 292.104L4.5665 288.223M19.099 292.104L0.387446 292.104M33.0526 295.831L73.4612 295.831M33.0526 295.831L46.4614 299.412M33.0526 295.831L0.387446 295.831M71.7678 306.171L33.6365 306.171M71.7678 306.171L83.7209 309.363M71.7678 306.171L109.899 306.171M71.7678 306.171L59.3567 302.856M33.6365 306.171L46.2928 309.363M33.6365 306.171L20.4953 302.856M33.6365 306.171L0.387445 306.171M83.7209 309.363L46.2928 309.363M83.7209 309.363L121.149 309.363M83.7209 309.363L95.2414 312.44M46.2928 309.363L58.4909 312.44M46.2928 309.363L8.86464 309.363M117.074 318.271L81.6078 318.271M117.074 318.271L127.428 321.037M117.074 318.271L152.541 318.271M117.074 318.271L106.352 315.407M81.6078 318.271L92.5714 321.037M81.6078 318.271L70.2551 315.407M81.6078 318.271L46.1413 318.271M127.428 321.037L92.5714 321.037M127.428 321.037L137.432 323.708M127.428 321.037L162.285 321.037M92.5714 321.037L57.7136 321.037M92.5714 321.037L103.164 323.708M70.2551 315.407L58.4909 312.44M70.2551 315.407L34.1576 315.407M70.2551 315.407L106.352 315.407M46.1413 318.271L57.7136 321.037M46.1413 318.271L34.1576 315.407M46.1413 318.271L10.6757 318.271M57.7136 321.037L22.8566 321.037M57.7136 321.037L68.8953 323.708M103.164 323.708L137.432 323.708M103.164 323.708L68.8953 323.708M103.164 323.708L113.405 326.292M34.1576 315.407L21.7397 312.44M34.1576 315.407L0.387444 315.407M10.6757 318.271L22.8566 321.037M10.6757 318.271L0.387444 315.936M10.6757 318.271L0.387444 318.271M22.8566 321.037L34.6268 323.708M22.8566 321.037L0.387444 321.037M68.8953 323.708L34.6268 323.708M68.8953 323.708L79.7053 326.292M34.6268 323.708L46.0057 326.292M34.6268 323.708L0.387444 323.708M58.4909 312.44L21.7397 312.44M58.4909 312.44L95.2414 312.44M8.86464 309.363L21.7397 312.44M8.86464 309.363L0.387445 307.338M8.86464 309.363L0.387445 309.363M21.7397 312.44L0.387445 312.44M95.2414 312.44L131.992 312.44M95.2414 312.44L106.352 315.407M106.352 315.407L142.449 315.407M20.4953 302.856L6.84153 299.412M20.4953 302.856L59.3567 302.856M20.4953 302.856L0.387445 302.856M0.27127 306.171L0.387445 306.171M6.84153 299.412L46.4614 299.412M6.84153 299.412L0.387446 297.784M6.84153 299.412L0.387446 299.412M46.4614 299.412L86.0813 299.412M46.4614 299.412L59.3567 302.856M59.3567 302.856L98.2181 302.856M214.642 315.407L205.493 312.44M214.642 315.407L178.546 315.407M214.642 315.407L250.74 315.407M188.006 318.271L197.142 321.037M188.006 318.271L178.546 315.407M188.006 318.271L152.541 318.271M197.142 321.037L162.285 321.037M197.142 321.037L205.97 323.708M240.239 323.708L205.97 323.708M240.239 323.708L248.204 326.292M240.239 323.708L274.507 323.708M178.546 315.407L168.742 312.44M178.546 315.407L142.449 315.407M152.541 318.271L162.285 321.037M152.541 318.271L142.449 315.407M162.285 321.037L171.701 323.708M205.97 323.708L171.701 323.708M205.97 323.708L214.504 326.292M142.449 315.407L131.992 312.44M137.432 323.708L171.701 323.708M137.432 323.708L147.105 326.292M171.701 323.708L180.805 326.292M205.493 312.44L168.742 312.44M205.493 312.44L242.243 312.44M158.577 309.363L168.742 312.44M158.577 309.363L148.03 306.171M158.577 309.363L121.149 309.363M168.742 312.44L131.992 312.44M242.243 312.44L278.994 312.44M242.243 312.44L250.74 315.407M131.992 312.44L121.149 309.363M250.74 315.407L286.837 315.407M148.03 306.171L137.079 302.856M148.03 306.171L109.899 306.171M121.149 309.363L109.899 306.171M109.899 306.171L98.2181 302.856M175.941 302.856L165.321 299.412M175.941 302.856L137.079 302.856M175.941 302.856L214.802 302.857M137.079 302.856L125.701 299.412M137.079 302.856L98.2181 302.856M98.2181 302.856L86.0813 299.412M165.321 299.412L125.701 299.412M165.321 299.412L204.941 299.412M113.87 295.831L125.701 299.412M113.87 295.831L101.557 292.104M113.87 295.831L73.4612 295.831M125.701 299.412L86.0813 299.412M204.941 299.412L244.561 299.412M204.941 299.412L214.802 302.857M86.0813 299.412L73.4612 295.831M214.802 302.857L253.663 302.857M101.557 292.104L88.7349 288.223M101.557 292.104L60.3282 292.104M73.4612 295.831L60.3282 292.104M60.3282 292.104L46.6511 288.223M130.819 288.223L118.345 284.178M130.819 288.223L88.7349 288.223M130.819 288.223L172.904 288.223M88.7349 288.223L75.3697 284.178M88.7349 288.223L46.6511 288.223M46.6511 288.223L32.3945 284.178M46.6511 288.223L4.5665 288.223M4.5665 288.223L0.387447 288.223M4.5665 288.223L0.387447 287.107M118.345 284.178L75.3697 284.178M118.345 284.178L161.321 284.178M61.4256 279.957L75.3697 284.178M61.4256 279.957L46.8654 275.55M61.4256 279.957L17.521 279.957M75.3697 284.178L32.3945 284.178M161.321 284.178L204.296 284.178M161.321 284.178L172.904 288.223M32.3945 284.178L17.521 279.957M32.3945 284.178L0.387447 284.178M172.904 288.223L214.988 288.223M46.8654 275.55L31.6472 270.944M46.8654 275.55L1.99006 275.55M17.521 279.957L1.99006 275.55M17.521 279.957L0.387448 279.957M0.162519 284.178L0.387447 284.178M1.99006 275.55L0.387448 275.095M1.99006 275.55L0.387448 275.55M77.5374 270.944L62.6759 266.124M77.5374 270.944L31.6472 270.944M77.5374 270.944L123.427 270.944M31.6472 270.944L15.7242 266.124M31.6472 270.944L0.387448 270.944M9.57188e-06 274.985L0.387448 275.095M62.6759 266.124L15.7242 266.124M62.6759 266.124L109.628 266.124M15.7242 266.124L0.387449 266.124M15.7242 266.124L0.387449 261.482M109.628 266.124L156.579 266.124M109.628 266.124L123.427 270.944M123.427 270.944L169.317 270.944M13.6591 250.228L64.1121 250.228M13.6591 250.228L0.387451 245.924M13.6591 250.228L0.38745 250.228M0.0223917 255.784L0.38745 255.784M64.1121 250.228L114.565 250.228M64.1121 250.228L47.3931 244.389M0.24136 245.876L0.387451 245.924M359.03 315.407L352.495 312.44M359.03 315.407L322.934 315.407M359.03 315.407L395.127 315.407M329.872 318.271L336.571 321.037M329.872 318.271L322.934 315.407M329.872 318.271L294.405 318.271M336.571 321.037L301.714 321.037M336.571 321.037L343.044 323.708M377.313 323.708L343.044 323.708M377.313 323.708L379.47 324.687L383.003 326.292M377.313 323.708L411.582 323.708M322.934 315.407L315.744 312.44M322.934 315.407L286.837 315.407M294.405 318.271L301.714 321.037M294.405 318.271L286.837 315.407M301.714 321.037L308.776 323.708M343.044 323.708L308.776 323.708M343.044 323.708L349.303 326.292M286.837 315.407L278.994 312.44M274.507 323.708L281.904 326.292M274.507 323.708L308.776 323.708M308.776 323.708L309.642 324.036L311.364 324.687L315.603 326.292M352.495 312.44L315.744 312.44M352.495 312.44L389.245 312.44M308.29 309.363L315.744 312.44M308.29 309.363L300.556 306.171M308.29 309.363L270.862 309.363M315.744 312.44L278.994 312.44M389.245 312.44L425.995 312.44M389.245 312.44L395.127 315.407M278.994 312.44L270.862 309.363M395.127 315.407L431.225 315.407M300.556 306.171L292.525 302.857M300.556 306.171L262.424 306.171M270.862 309.363L269.824 308.971L262.424 306.171M262.424 306.171L253.663 302.857M331.386 302.857L330.454 302.433L323.801 299.412M331.386 302.857L292.525 302.857M331.386 302.857L370.247 302.857M292.525 302.857L284.181 299.412M292.525 302.857L253.663 302.857M253.663 302.857L244.561 299.412M323.801 299.412L284.181 299.412M323.801 299.412L363.421 299.412M275.504 295.831L284.181 299.412M275.504 295.831L266.475 292.104M275.504 295.831L235.096 295.831M284.181 299.412L244.561 299.412M363.421 299.412L403.041 299.412M363.421 299.412L370.247 302.857M244.561 299.412L235.096 295.831M370.247 302.857L409.109 302.857M266.475 292.104L257.072 288.223M266.475 292.104L225.246 292.104M235.096 295.831L225.246 292.104M225.246 292.104L214.988 288.223M299.156 288.223L290.247 284.178M299.156 288.223L257.072 288.223M299.156 288.223L341.241 288.223M257.072 288.223L247.271 284.178M257.072 288.223L214.988 288.223M214.988 288.223L204.296 284.178M290.247 284.178L247.271 284.178M290.247 284.178L333.222 284.178M237.046 279.957L247.271 284.178M237.046 279.957L226.368 275.55M237.046 279.957L193.141 279.957M247.271 284.178L204.296 284.178M333.222 284.178L376.197 284.178M333.222 284.178L341.241 288.223M204.296 284.178L193.141 279.957M341.241 288.223L383.325 288.223M226.368 275.55L215.208 270.944M226.368 275.55L181.492 275.55M193.141 279.957L181.492 275.55M181.492 275.55L169.317 270.944M261.098 270.944L250.483 266.124M261.098 270.944L215.208 270.944M261.098 270.944L306.988 270.944M215.208 270.944L203.531 266.124M215.208 270.944L169.317 270.944M169.317 270.944L156.579 266.124M250.483 266.124L203.531 266.124M250.483 266.124L297.434 266.124M191.301 261.076L203.531 266.124M191.301 261.076L178.479 255.784M191.301 261.076L143.238 261.076M203.531 266.124L156.579 266.124M297.434 266.124L344.386 266.124M297.434 266.124L306.988 270.944M156.579 266.124L143.238 261.076M306.988 270.944L352.878 270.944M178.479 255.784L165.018 250.228M178.479 255.784L129.249 255.784M143.238 261.076L129.249 255.784M129.249 255.784L114.565 250.228M215.471 250.228L202.611 244.389M215.471 250.228L165.018 250.228M215.471 250.228L265.924 250.228M165.018 250.228L150.871 244.389M165.018 250.228L114.565 250.228M114.565 250.228L99.1325 244.389M202.611 244.389L150.871 244.389M202.611 244.389L254.349 244.389M135.985 238.244L150.871 244.389M135.985 238.244L120.298 231.77M135.985 238.244L82.8926 238.244M150.871 244.389L99.1325 244.389M254.349 244.389L306.089 244.389M254.349 244.389L265.924 250.228M99.1325 244.389L82.8926 238.244M99.1325 244.389L47.3931 244.389M265.924 250.228L316.377 250.228M120.298 231.77L103.746 224.938M120.298 231.77L65.7801 231.77M82.8926 238.244L65.7801 231.77M47.3931 244.389L0.387451 244.389M65.7801 231.77L47.723 224.938M159.769 224.938L143.868 217.718M159.769 224.938L103.746 224.938M159.769 224.938L215.792 224.938M103.746 224.938L86.2545 217.718M103.746 224.938L47.723 224.938M47.723 224.938L28.6413 217.718M47.723 224.938L0.387453 224.938M143.868 217.718L86.2545 217.718M143.868 217.718L201.481 217.718M67.7402 210.076L86.2545 217.718M67.7402 210.076L48.112 201.975M67.7402 210.076L8.44415 210.076M86.2545 217.718L28.6413 217.718M201.481 217.718L259.094 217.718M201.481 217.718L215.792 224.938M28.6413 217.718L8.44415 210.076M28.6413 217.718L0.387453 217.718M215.792 224.938L271.816 224.938M48.112 201.975L27.2658 193.37M48.112 201.975L0.387455 201.975M8.44415 210.076L0.387454 210.076M8.44415 210.076L0.387454 207.028M90.2416 193.37L70.0775 184.215M90.2416 193.37L27.2658 193.37M90.2416 193.37L153.217 193.37M27.2658 193.37L5.08519 184.215M27.2658 193.37L0.387456 193.37M70.0775 184.215L5.08519 184.215M70.0775 184.215L135.07 184.215M5.08519 184.215L0.387457 182.276M5.08519 184.215L0.387457 184.215M135.07 184.215L200.062 184.215M135.07 184.215L153.217 193.37M153.217 193.37L216.193 193.37M1.01186 152.858L72.9109 152.858M1.01186 152.858L0.38746 152.858M1.01186 152.858L0.38746 152.575M72.9109 152.858L144.809 152.858M72.9109 152.858L49.1472 140.87M503.418 315.407L501.964 314.307L501.475 313.937L499.497 312.44M503.418 315.407L467.321 315.407M503.418 315.407L539.515 315.407M471.737 318.271L474.948 320.354L476 321.037M471.737 318.271L467.881 315.771L467.321 315.407M471.737 318.271L436.27 318.271M476 321.037L441.143 321.037M476 321.037L480.119 323.708M514.388 323.708L480.119 323.708M514.388 323.708L515.682 324.687L517.802 326.292M514.388 323.708L548.656 323.708M467.321 315.407L466.193 314.676L462.746 312.44M467.321 315.407L431.225 315.407M436.27 318.271L441.143 321.037M436.27 318.271L431.225 315.407M441.143 321.037L444.689 323.049L445.851 323.708M480.119 323.708L445.851 323.708M480.119 323.708L484.102 326.292M431.225 315.407L425.995 312.44M411.582 323.708L412.231 324.036L416.703 326.292M411.582 323.708L445.851 323.708M445.851 323.708L447.576 324.687L450.402 326.292M499.497 312.44L462.746 312.44M499.497 312.44L536.248 312.44M458.003 309.363L462.746 312.44M458.003 309.363L453.081 306.171M458.003 309.363L420.574 309.363M462.746 312.44L425.995 312.44M536.248 312.44L572.998 312.44M536.248 312.44L539.515 315.407M425.995 312.44L420.574 309.363M539.515 315.407L575.612 315.407M453.081 306.171L449.91 304.114L449.266 303.697L447.971 302.857M453.081 306.171L414.949 306.171M420.574 309.363L414.949 306.171M414.949 306.171L409.109 302.857M486.832 302.857L482.28 299.412M486.832 302.857L447.971 302.857M486.832 302.857L525.693 302.857M447.971 302.857L442.661 299.412M447.971 302.857L409.109 302.857M409.109 302.857L403.041 299.412M482.28 299.412L442.661 299.412M482.28 299.412L521.9 299.412M437.139 295.831L440.616 298.086L441.3 298.53L442.661 299.412M437.139 295.831L431.393 292.104M437.139 295.831L396.731 295.831M442.661 299.412L403.041 299.412M521.9 299.412L561.52 299.412M521.9 299.412L525.693 302.857M403.041 299.412L396.731 295.831M525.693 302.857L564.555 302.857M431.393 292.104L425.409 288.223M431.393 292.104L390.164 292.104M396.731 295.831L390.164 292.104M390.164 292.104L383.325 288.223M467.494 288.223L464.849 286.222L464.179 285.715L462.148 284.178M467.494 288.223L425.409 288.223M467.494 288.223L509.579 288.223M425.409 288.223L419.173 284.178M425.409 288.223L383.325 288.223M383.325 288.223L376.197 284.178M462.148 284.178L419.173 284.178M462.148 284.178L505.123 284.178M412.665 279.957L419.173 284.178M412.665 279.957L405.87 275.55M412.665 279.957L368.76 279.957M419.173 284.178L376.197 284.178M505.123 284.178L548.099 284.178M505.123 284.178L506.255 285.205L509.579 288.223M376.197 284.178L368.76 279.957M509.579 288.223L551.662 288.223M405.87 275.55L398.769 270.944M405.87 275.55L360.995 275.55M368.76 279.957L360.995 275.55M360.995 275.55L352.878 270.944M444.659 270.944L438.29 266.124M444.659 270.944L398.769 270.944M444.659 270.944L490.549 270.944M398.769 270.944L391.338 266.124M398.769 270.944L352.878 270.944M352.878 270.944L344.386 266.124M438.29 266.124L391.338 266.124M438.29 266.124L485.241 266.124M383.556 261.076L391.338 266.124M383.556 261.076L375.396 255.784M383.556 261.076L335.492 261.076M391.338 266.124L344.386 266.124M485.241 266.124L532.193 266.124M485.241 266.124L490.549 270.944M344.386 266.124L335.492 261.076M490.549 270.944L536.439 270.944M375.396 255.784L366.83 250.228M375.396 255.784L326.166 255.784M335.492 261.076L326.166 255.784M326.166 255.784L316.377 250.228M417.282 250.228L409.566 244.389M417.282 250.228L366.83 250.228M417.282 250.228L467.735 250.228M366.83 250.228L357.827 244.389M366.83 250.228L316.377 250.228M316.377 250.228L306.089 244.389M409.566 244.389L357.827 244.389M409.566 244.389L461.305 244.389M348.354 238.244L357.827 244.389M348.354 238.244L338.371 231.77M348.354 238.244L295.261 238.244M357.827 244.389L306.089 244.389M461.305 244.389L513.044 244.389M461.305 244.389L467.735 250.228M306.089 244.389L295.261 238.244M467.735 250.228L518.188 250.228M338.371 231.77L327.838 224.938M338.371 231.77L283.853 231.77M295.261 238.244L283.853 231.77M283.853 231.77L271.816 224.938M383.862 224.938L374.321 217.718M383.862 224.938L327.838 224.938M383.862 224.938L439.885 224.938M327.838 224.938L316.707 217.718M327.838 224.938L271.816 224.938M271.816 224.938L259.094 217.718M374.321 217.718L316.707 217.718M374.321 217.718L431.934 217.718M304.926 210.076L316.707 217.718M304.926 210.076L292.435 201.975M304.926 210.076L245.629 210.076M316.707 217.718L259.094 217.718M431.934 217.718L489.547 217.718M431.934 217.718L439.885 224.938M259.094 217.718L245.629 210.076M439.885 224.938L495.907 224.938M292.435 201.975L279.169 193.37M292.435 201.975L231.355 201.975M245.629 210.076L231.355 201.975M231.355 201.975L216.193 193.37M342.145 193.37L330.046 184.215M342.145 193.37L279.169 193.37M342.145 193.37L405.121 193.37M279.169 193.37L265.054 184.215M279.169 193.37L216.193 193.37M216.193 193.37L200.062 184.215M330.046 184.215L265.054 184.215M330.046 184.215L395.039 184.215M250.005 174.454L265.054 184.215M250.005 174.454L233.927 164.026M250.005 174.454L182.862 174.454M265.054 184.215L200.062 184.215M395.039 184.215L460.031 184.215M395.039 184.215L405.121 193.37M200.062 184.215L182.862 174.454M405.121 193.37L468.097 193.37M233.927 164.026L216.708 152.858M233.927 164.026L164.487 164.026M182.862 174.454L164.487 164.026M164.487 164.026L144.809 152.858M288.607 152.858L272.765 140.87M288.607 152.858L216.708 152.858M288.607 152.858L360.506 152.858M216.708 152.858L198.226 140.87M216.708 152.858L144.809 152.858M144.809 152.858L123.686 140.87M272.765 140.87L198.226 140.87M272.765 140.87L347.305 140.87M178.334 127.968L198.226 140.87M178.334 127.968L156.866 114.043M178.334 127.968L100.953 127.968M198.226 140.87L123.686 140.87M347.305 140.87L421.844 140.87M347.305 140.87L360.506 152.858M123.686 140.87L100.953 127.968M123.686 140.87L49.1472 140.87M360.506 152.858L432.405 152.858M156.866 114.043L133.625 98.9694M156.866 114.043L76.4183 114.043M100.953 127.968L76.4183 114.043M49.1472 140.87L0.387461 140.87M76.4183 114.043L49.8571 98.9694M76.4183 114.043L0.387463 114.043M217.393 98.9695L195.758 82.5978M217.393 98.9695L133.625 98.9694M217.393 98.9695L301.161 98.9695M133.625 98.9694L108.384 82.5978M133.625 98.9694L49.8571 98.9694M49.8571 98.9694L21.0103 82.5978M49.8571 98.9694L0.387465 98.9694M195.758 82.5978L108.384 82.5978M195.758 82.5978L283.131 82.5978M80.8717 64.7533L108.384 82.5978M80.8717 64.7533L50.7679 45.2278M80.8717 64.7533L0.387468 64.7533M108.384 82.5978L21.0103 82.5978M283.131 82.5978L370.505 82.5978M283.131 82.5978L301.161 98.9695M21.0103 82.5978L0.387466 82.5978M21.0103 82.5978L0.387467 70.8935M301.161 98.9695L384.929 98.9695M50.7679 45.2278L17.6881 23.7717M50.7679 45.2278L0.38747 45.2278M118.019 23.7718L86.7155 0.0841633M118.019 23.7718L17.6881 23.7717M118.019 23.7718L218.348 23.7718M17.6881 23.7717L0.387473 12.5501M17.6881 23.7717L0.387472 23.7717M86.7155 0.0841633L192.263 0.0841719M86.7155 0.0841633L0.387474 0.0846061M192.263 0.0841719L297.81 0.0841805M192.263 0.0841719L218.348 23.7718M218.348 23.7718L318.679 23.7718M647.806 315.407L647.645 315.042L647.484 314.676L647.321 314.307L647.159 313.937L646.665 312.817L646.499 312.44M647.806 315.407L611.709 315.407M647.806 315.407L683.903 315.407M613.602 318.271L614.978 320.354L615.428 321.037M613.602 318.271L612.426 316.493L611.709 315.407M613.602 318.271L578.135 318.271M615.428 321.037L580.571 321.037M615.428 321.037L616.758 323.049L617.194 323.708M651.463 323.708L651.607 324.036L652.178 325.333L652.601 326.292M651.463 323.708L617.194 323.708M651.463 323.708L685.731 323.708M611.709 315.407L611.468 315.042L611.225 314.676L610.982 314.307L610.737 313.937L609.749 312.44M611.709 315.407L575.612 315.407M578.135 318.271L579.97 320.354L580.571 321.037M578.135 318.271L575.612 315.407M580.571 321.037L581.759 322.384L582.636 323.379L582.925 323.708M617.194 323.708L617.41 324.036L617.841 324.687L618.268 325.333L618.479 325.654L618.901 326.292M617.194 323.708L582.925 323.708M575.612 315.407L573.66 313.192L572.998 312.44M548.656 323.708L550.799 325.654L551.501 326.292M548.656 323.708L582.925 323.708M582.925 323.708L584.92 325.974L585.202 326.292M646.499 312.44L609.749 312.44M646.499 312.44L683.249 312.44M607.716 309.363L609.749 312.44M607.716 309.363L605.606 306.171M607.716 309.363L570.288 309.363M609.749 312.44L572.998 312.44M683.249 312.44L720 312.44M683.249 312.44L683.903 315.407M572.998 312.44L570.288 309.363M683.903 315.407L720 315.407M605.606 306.171L605.066 305.354L604.247 304.114L603.416 302.857M605.606 306.171L567.474 306.171M570.288 309.363L569.941 308.971L567.474 306.171M567.474 306.171L567.116 305.764L566.755 305.354L566.393 304.943L564.555 302.857M642.277 302.857L640.76 299.412M642.277 302.857L603.416 302.857M642.277 302.857L681.139 302.857M603.416 302.857L601.14 299.412M603.416 302.857L564.555 302.857M564.555 302.857L562.29 300.286L561.906 299.85L561.52 299.412M640.76 299.412L601.14 299.412M640.76 299.412L680.38 299.412M598.774 295.831L598.472 295.373L598.167 294.914L597.862 294.451L596.311 292.104M598.774 295.831L599.969 297.64L600.264 298.086L600.557 298.53L601.14 299.412M598.774 295.831L558.365 295.831M601.14 299.412L561.52 299.412M680.38 299.412L720 299.412M680.38 299.412L681.139 302.857M561.52 299.412L558.365 295.831M681.139 302.857L720 302.857M596.311 292.104L594.073 288.717L593.747 288.223M596.311 292.104L555.082 292.104M558.365 295.831L557.556 294.914L555.082 292.104M555.082 292.104L553.816 290.668L551.662 288.223M635.832 288.223L634.949 286.222L634.727 285.715L634.049 284.178M635.832 288.223L593.747 288.223M635.832 288.223L677.915 288.223M593.747 288.223L591.074 284.178M593.747 288.223L551.662 288.223M551.662 288.223L548.099 284.178M634.049 284.178L591.074 284.178M634.049 284.178L677.025 284.178M588.285 279.957L591.074 284.178M588.285 279.957L585.373 275.55M588.285 279.957L544.38 279.957M591.074 284.178L548.099 284.178M677.025 284.178L720 284.178M677.025 284.178L677.251 285.205L677.696 287.228L677.915 288.223M548.099 284.178L544.38 279.957M677.915 288.223L720 288.223M585.373 275.55L583.103 272.115L582.329 270.944M585.373 275.55L540.497 275.55M544.38 279.957L540.497 275.55M540.497 275.55L538.491 273.273L536.439 270.944M628.219 270.944L626.097 266.124M628.219 270.944L582.329 270.944M628.219 270.944L674.11 270.944M582.329 270.944L579.145 266.124M582.329 270.944L536.439 270.944M536.439 270.944L532.193 266.124M626.097 266.124L579.145 266.124M626.097 266.124L673.048 266.124M575.809 261.076L576.658 262.36L579.145 266.124M575.809 261.076L572.312 255.784M575.809 261.076L527.746 261.076M579.145 266.124L532.193 266.124M673.048 266.124L720 266.124M673.048 266.124L674.11 270.944M532.193 266.124L527.746 261.076M674.11 270.944L720 270.944M572.312 255.784L568.641 250.228M572.312 255.784L523.083 255.784M527.746 261.076L523.083 255.784M523.083 255.784L518.188 250.228M619.094 250.228L616.522 244.389M619.094 250.228L568.641 250.228M619.094 250.228L669.547 250.228M568.641 250.228L564.783 244.389M568.641 250.228L518.188 250.228M518.188 250.228L513.044 244.389M616.522 244.389L564.783 244.389M616.522 244.389L668.261 244.389M560.723 238.244L564.783 244.389M560.723 238.244L556.445 231.77M560.723 238.244L507.631 238.244M564.783 244.389L513.044 244.389M668.261 244.389L720 244.389M668.261 244.389L669.39 249.514L669.547 250.228M513.044 244.389L507.631 238.244M669.547 250.228L720 250.228M556.445 231.77L551.931 224.938M556.445 231.77L501.927 231.77M507.631 238.244L503.382 233.421L501.927 231.77M501.927 231.77L495.907 224.938M607.954 224.938L604.774 217.718M607.954 224.938L551.931 224.938M607.954 224.938L663.977 224.938M551.931 224.938L547.16 217.718M551.931 224.938L495.907 224.938M495.907 224.938L489.547 217.718M604.774 217.718L547.16 217.718M604.774 217.718L662.387 217.718M542.111 210.076L547.16 217.718M542.111 210.076L536.758 201.975M542.111 210.076L482.815 210.076M547.16 217.718L489.547 217.718M662.387 217.718L720 217.718M662.387 217.718L663.977 224.938M489.547 217.718L482.815 210.076M663.977 224.938L720 224.938M536.758 201.975L531.073 193.37M536.758 201.975L475.677 201.975M482.815 210.076L475.677 201.975M475.677 201.975L468.097 193.37M594.048 193.37L590.015 184.215M594.048 193.37L531.073 193.37M594.048 193.37L657.024 193.37M531.073 193.37L525.023 184.215M531.073 193.37L468.097 193.37M468.097 193.37L460.031 184.215M590.015 184.215L525.023 184.215M590.015 184.215L655.008 184.215M518.574 174.454L525.023 184.215M518.574 174.454L511.683 164.026M518.574 174.454L451.432 174.454M525.023 184.215L460.031 184.215M655.008 184.215L720 184.215M655.008 184.215L657.024 193.37M460.031 184.215L451.432 174.454M657.024 193.37L720 193.37M511.683 164.026L504.304 152.858M511.683 164.026L442.244 164.026M451.432 174.454L442.244 164.026M442.244 164.026L432.405 152.858M576.203 152.858L570.922 140.87M576.203 152.858L504.304 152.858M576.203 152.858L648.101 152.858M504.304 152.858L496.383 140.87M504.304 152.858L432.405 152.858M432.405 152.858L421.844 140.87M570.922 140.87L496.383 140.87M570.922 140.87L645.461 140.87M487.858 127.968L496.383 140.87M487.858 127.968L478.657 114.043M487.858 127.968L410.477 127.968M496.383 140.87L421.844 140.87M645.461 140.87L720 140.87M645.461 140.87L648.101 152.858M421.844 140.87L410.477 127.968M648.101 152.858L720 152.858M478.657 114.043L468.696 98.9695M478.657 114.043L398.209 114.043M410.477 127.968L398.209 114.043M398.209 114.043L384.929 98.9695M552.464 98.9695L545.253 82.5978M552.464 98.9695L468.696 98.9695M552.464 98.9695L636.232 98.9695M468.696 98.9695L457.879 82.5978M468.696 98.9695L384.929 98.9695M384.929 98.9695L370.505 82.5978M545.253 82.5978L457.879 82.5978M545.253 82.5978L632.626 82.5978M446.088 64.7533L457.879 82.5978M446.088 64.7533L433.186 45.2278M446.088 64.7533L354.784 64.7533M457.879 82.5978L370.505 82.5978M632.626 82.5978L720 82.5978M632.626 82.5978L636.232 98.9695M370.505 82.5978L354.784 64.7533M636.232 98.9695L720 98.9695M433.186 45.2278L419.009 23.7718M433.186 45.2278L337.581 45.2278M354.784 64.7533L337.581 45.2278M337.581 45.2278L318.679 23.7718M519.34 23.7718L508.905 0.0841976M519.34 23.7718L419.009 23.7718M519.34 23.7718L619.67 23.7718M419.009 23.7718L403.358 0.0841891M419.009 23.7718L318.679 23.7718M318.679 23.7718L297.81 0.0841805M403.358 0.0841891L508.905 0.0841976M403.358 0.0841891L297.81 0.0841805M508.905 0.0841976L614.452 0.0842062M614.452 0.0842062L720 0.0842148M614.452 0.0842062L619.67 23.7718M619.67 23.7718L720 23.7718M792.194 315.407L792.355 315.042L792.516 314.676L792.679 314.307L792.841 313.937L793.17 313.192L793.335 312.817L793.501 312.44M792.194 315.407L756.097 315.407M792.194 315.407L828.291 315.407M755.466 318.271L754.857 321.037M755.466 318.271L756.097 315.407M755.466 318.271L720 318.271M754.857 321.037L754.783 321.376L754.708 321.713L754.634 322.049L754.268 323.708M754.857 321.037L720 321.037M788.537 323.708L788.393 324.036L787.822 325.333L787.399 326.292M788.537 323.708L754.268 323.708M788.537 323.708L822.806 323.708M756.097 315.407L756.178 315.042L756.258 314.676L756.34 314.307L756.75 312.44M756.097 315.407L720 315.407M720 318.271L720 321.037M720 318.271L720 315.407M720 321.037L720 323.708M754.268 323.708L720 323.708M754.268 323.708L754.053 324.687L753.981 325.011L753.7 326.292M720 315.407L720 312.44M685.731 323.708L685.946 324.687L686.018 325.011L686.089 325.333L686.16 325.654L686.23 325.974L686.3 326.292M685.731 323.708L720 323.708M720 323.708L720 326.292M793.501 312.44L756.75 312.44M793.501 312.44L830.251 312.44M757.428 309.363L757.515 308.971L757.601 308.577L758.131 306.171M757.428 309.363L756.75 312.44M757.428 309.363L720 309.363M756.75 312.44L720 312.44M830.251 312.44L867.002 312.44M830.251 312.44L829.755 313.192L829.508 313.565L829.263 313.937L829.017 314.307L828.775 314.676L828.532 315.042L828.291 315.407M720 312.44L720 309.363M828.291 315.407L864.388 315.407M758.131 306.171L758.861 302.857M758.131 306.171L720 306.171M720 309.363L720 306.171M720 306.171L720 302.857M797.723 302.857L799.24 299.412M797.723 302.857L758.861 302.857M797.723 302.857L836.584 302.857M758.861 302.857L759.62 299.412M758.861 302.857L720 302.857M720 302.857L720 299.412M799.24 299.412L759.62 299.412M799.24 299.412L838.86 299.412M760.408 295.831L759.62 299.412M760.408 295.831L761.229 292.105M760.408 295.831L720 295.831M759.62 299.412L720 299.412M838.86 299.412L878.48 299.412M838.86 299.412L836.584 302.857M720 299.412L720 295.831M836.584 302.857L875.445 302.857M761.229 292.105L761.546 290.668L761.867 289.209L762.085 288.223M761.229 292.105L720 292.105M720 295.831L720 292.105M720 292.105L720 288.223M804.168 288.223L805.051 286.222L805.273 285.715L805.951 284.178M804.168 288.223L762.085 288.223M804.168 288.223L846.253 288.223M762.085 288.223L762.303 287.228L762.749 285.205L762.975 284.178M762.085 288.223L720 288.223M720 288.223L720 284.178M805.951 284.178L762.975 284.178M805.951 284.178L848.926 284.178M763.905 279.957L763.787 280.495L762.975 284.178M763.905 279.957L764.875 275.55M763.905 279.957L720 279.957M762.975 284.178L720 284.178M848.926 284.178L891.901 284.178M848.926 284.178L846.253 288.223M720 284.178L720 279.957M846.253 288.223L888.338 288.223M764.875 275.55L765.89 270.944M764.875 275.55L720 275.55M720 279.957L720 275.55M720 275.55L720 270.944M811.781 270.944L813.903 266.124M811.781 270.944L765.89 270.944M811.781 270.944L857.671 270.944M765.89 270.944L766.952 266.124M765.89 270.944L720 270.944M720 270.944L720 266.124M813.903 266.124L766.952 266.124M813.903 266.124L860.855 266.124M768.063 261.076L766.952 266.124M768.063 261.076L769.229 255.784M768.063 261.076L720 261.076M766.952 266.124L720 266.124M860.855 266.124L907.807 266.124M860.855 266.124L857.671 270.944M720 266.124L720 261.076M857.671 270.944L903.561 270.944M769.229 255.784L770.453 250.228M769.229 255.784L720 255.784M720 261.076L720 255.784M720 255.784L720 250.228M820.906 250.228L823.478 244.389M820.906 250.228L770.453 250.228M820.906 250.228L871.358 250.228M770.453 250.228L771.739 244.389M770.453 250.228L720 250.228M720 250.228L720 244.389M823.478 244.389L771.739 244.389M823.478 244.389L875.217 244.389M773.092 238.244L771.739 244.389M773.092 238.244L774.518 231.77M773.092 238.244L720 238.244M771.739 244.389L720 244.389M875.217 244.389L926.956 244.389M875.217 244.389L871.358 250.228M720 244.389L720 238.244M871.358 250.228L921.812 250.228M774.518 231.77L776.023 224.938M774.518 231.77L720 231.77M720 238.244L720 231.77M720 231.77L720 224.938M832.046 224.938L835.226 217.718M832.046 224.938L776.023 224.938M832.046 224.938L888.069 224.938M776.023 224.938L777.613 217.718M776.023 224.938L720 224.938M720 224.938L720 217.718M835.226 217.718L777.613 217.718M835.226 217.718L892.84 217.718M779.296 210.076L777.613 217.718M779.296 210.076L781.081 201.975M779.296 210.076L720 210.076M777.613 217.718L720 217.718M892.84 217.718L950.453 217.718M892.84 217.718L888.069 224.938M720 217.718L720 210.076M888.069 224.938L944.093 224.938M781.081 201.975L782.976 193.37M781.081 201.975L720 201.975M720 210.076L720 201.975M720 201.975L720 193.37M845.952 193.37L849.984 184.215M845.952 193.37L782.976 193.37M845.952 193.37L908.927 193.37M782.976 193.37L784.992 184.215M782.976 193.37L720 193.37M720 193.37L720 184.215M849.984 184.215L784.992 184.215M849.984 184.215L914.977 184.215M787.142 174.454L784.992 184.215M787.142 174.454L789.439 164.026M787.142 174.454L720 174.454M784.992 184.215L720 184.215M914.977 184.215L979.969 184.215M914.977 184.215L908.927 193.37M720 184.215L720 174.454M908.927 193.37L971.903 193.37M789.439 164.026L791.899 152.858M789.439 164.026L720 164.026M720 174.454L720 164.026M720 164.026L720 152.858M863.797 152.858L869.078 140.87M863.797 152.858L791.899 152.858M863.797 152.858L935.696 152.858M791.899 152.858L794.539 140.87M791.899 152.858L720 152.858M720 152.858L720 140.87M869.078 140.87L794.539 140.87M869.078 140.87L943.617 140.87M797.381 127.968L794.539 140.87M797.381 127.968L800.447 114.043M797.381 127.968L720 127.968M794.539 140.87L720 140.87M943.617 140.87L1018.16 140.87M943.617 140.87L935.696 152.858M720 140.87L720 127.968M935.696 152.858L1007.6 152.858M800.447 114.043L803.768 98.9695M800.447 114.043L720 114.043M720 127.968L720 114.043M720 114.043L720 98.9695M887.535 98.9695L894.747 82.5978M887.535 98.9695L803.768 98.9695M887.535 98.9695L971.304 98.9695M803.768 98.9695L807.374 82.5978M803.768 98.9695L720 98.9695M720 98.9695L720 82.5978M894.747 82.5978L807.374 82.5978M894.747 82.5978L982.121 82.5978M811.304 64.7533L807.374 82.5978M811.304 64.7533L815.604 45.2279M811.304 64.7533L720 64.7533M807.374 82.5978L720 82.5978M982.121 82.5978L1069.49 82.5978M982.121 82.5978L971.304 98.9695M720 82.5978L720 64.7533M971.304 98.9695L1055.07 98.9695M815.604 45.2279L820.33 23.7718M815.604 45.2279L720 45.2279M720 64.7533L720 45.2279M720 45.2279L720 23.7718M920.66 23.7718L931.095 0.084232M920.66 23.7718L820.33 23.7718M920.66 23.7718L1020.99 23.7718M820.33 23.7718L825.548 0.0842234M820.33 23.7718L720 23.7718M720 23.7718L720 0.0842148M825.548 0.0842234L931.095 0.084232M825.548 0.0842234L720 0.0842148M931.095 0.084232L1036.64 0.0842406M1036.64 0.0842406L1142.19 0.0842492M1036.64 0.0842406L1020.99 23.7718M1020.99 23.7718L1121.32 23.7718M936.582 315.407L938.525 313.937L940.503 312.44M936.582 315.407L900.485 315.407M936.582 315.407L972.678 315.408M897.331 318.271L894.286 321.037M897.331 318.271L900.485 315.407M897.331 318.271L861.865 318.271M894.286 321.037L859.429 321.037M894.286 321.037L892.07 323.049L891.343 323.708M925.612 323.708L891.343 323.708M925.612 323.708L924.318 324.687L922.198 326.292M925.612 323.708L959.881 323.708M900.485 315.407L903.752 312.44M900.485 315.407L864.388 315.407M861.865 318.271L859.429 321.037M861.865 318.271L864.388 315.407M859.429 321.037L858.241 322.384L857.364 323.379L857.075 323.708M891.343 323.708L857.075 323.708M891.343 323.708L889.201 325.654L888.499 326.292M864.388 315.407L866.34 313.192L867.002 312.44M822.806 323.708L822.59 324.036L822.159 324.687L821.521 325.654L821.099 326.292M822.806 323.708L857.075 323.708M857.075 323.708L856.786 324.036L856.212 324.687L854.799 326.292M940.503 312.44L903.752 312.44M940.503 312.44L977.254 312.44M907.141 309.363L906.71 309.754L906.282 310.143L904.588 311.682L903.752 312.44M907.141 309.363L909.765 306.981L910.657 306.171M907.141 309.363L869.712 309.363M903.752 312.44L867.002 312.44M977.254 312.44L1014 312.44M977.254 312.44L973.807 314.676L972.678 315.408M867.002 312.44L869.712 309.363M972.678 315.408L1008.78 315.408M910.657 306.171L911.105 305.764L911.556 305.354L912.921 304.114L913.382 303.697L914.307 302.857M910.657 306.171L872.526 306.171M869.712 309.363L870.059 308.971L872.526 306.171M872.526 306.171L872.884 305.764L873.245 305.354L873.607 304.943L875.445 302.857M953.168 302.857L957.719 299.412M953.168 302.857L914.307 302.857M953.168 302.857L992.029 302.857M914.307 302.857L918.1 299.412M914.307 302.857L875.445 302.857M875.445 302.857L878.48 299.412M957.719 299.412L918.1 299.412M957.719 299.412L997.339 299.412M922.043 295.831L918.1 299.412M922.043 295.831L926.147 292.105M922.043 295.831L881.635 295.831M918.1 299.412L878.48 299.412M997.339 299.412L1036.96 299.412M997.339 299.412L992.029 302.857M878.48 299.412L881.635 295.831M992.029 302.857L1030.89 302.857M926.147 292.105L930.421 288.223M926.147 292.105L884.918 292.105M881.635 295.831L882.443 294.914L884.918 292.105M884.918 292.105L886.184 290.668L887.47 289.209L888.338 288.223M972.506 288.223L975.151 286.222L977.852 284.178M972.506 288.223L930.421 288.223M972.506 288.223L1014.59 288.223M930.421 288.223L934.877 284.178M930.421 288.223L888.338 288.223M888.338 288.223L891.901 284.178M977.852 284.178L934.877 284.178M977.852 284.178L1020.83 284.178M939.524 279.957L934.877 284.178M939.524 279.957L944.378 275.55M939.524 279.957L895.62 279.957M934.877 284.178L891.901 284.178M1020.83 284.178L1063.8 284.178M1020.83 284.178L1014.59 288.223M891.901 284.178L895.62 279.957M1014.59 288.223L1056.67 288.223M944.378 275.55L945.625 274.418L949.451 270.944M944.378 275.55L899.503 275.55M895.62 279.957L899.503 275.55M899.503 275.55L900 274.985L901.509 273.273L903.561 270.944M995.341 270.944L1001.71 266.124M995.341 270.944L949.451 270.944M995.341 270.944L1041.23 270.944M949.451 270.944L954.759 266.124M949.451 270.944L903.561 270.944M903.561 270.944L907.807 266.124M1001.71 266.124L954.759 266.124M1001.71 266.124L1048.66 266.124M960.318 261.076L956.812 264.259L954.759 266.124M960.318 261.076L966.146 255.784M960.318 261.076L912.254 261.076M954.759 266.124L907.807 266.124M1048.66 266.124L1095.61 266.124M1048.66 266.124L1041.23 270.944M907.807 266.124L912.254 261.076M1041.23 270.944L1087.12 270.944M966.146 255.784L972.265 250.228M966.146 255.784L916.917 255.784M912.254 261.076L916.917 255.784M916.917 255.784L921.812 250.228M1022.72 250.228L1030.43 244.389M1022.72 250.228L972.265 250.228M1022.72 250.228L1073.17 250.228M972.265 250.228L978.695 244.389M972.265 250.228L921.812 250.228M921.812 250.228L926.956 244.389M1030.43 244.389L978.695 244.389M1030.43 244.389L1082.17 244.389M985.461 238.244L978.695 244.389M985.461 238.244L992.591 231.77M985.461 238.244L932.369 238.244M978.695 244.389L926.956 244.389M1082.17 244.389L1133.91 244.389M1082.17 244.389L1073.17 250.228M926.956 244.389L932.369 238.244M1073.17 250.228L1123.62 250.228M992.591 231.77L1000.12 224.938M992.591 231.77L938.073 231.77M932.369 238.244L938.073 231.77M938.073 231.77L944.093 224.938M1056.14 224.938L1065.68 217.718M1056.14 224.938L1000.12 224.938M1056.14 224.938L1112.16 224.938M1000.12 224.938L1008.07 217.718M1000.12 224.938L944.093 224.938M944.093 224.938L950.453 217.718M1065.68 217.718L1008.07 217.718M1065.68 217.718L1123.29 217.718M1016.48 210.076L1008.07 217.718M1016.48 210.076L1025.4 201.975M1016.48 210.076L957.185 210.076M1008.07 217.718L950.453 217.718M1123.29 217.718L1180.91 217.718M1123.29 217.718L1112.16 224.938M950.453 217.718L957.185 210.076M1112.16 224.938L1168.18 224.938M1025.4 201.975L1034.88 193.37M1025.4 201.975L964.323 201.975M957.185 210.076L964.323 201.975M964.323 201.975L971.903 193.37M1097.85 193.37L1109.95 184.215M1097.85 193.37L1034.88 193.37M1097.85 193.37L1160.83 193.37M1034.88 193.37L1044.96 184.215M1034.88 193.37L971.903 193.37M971.903 193.37L979.969 184.215M1109.95 184.215L1044.96 184.215M1109.95 184.215L1174.95 184.215M1055.71 174.454L1044.96 184.215M1055.71 174.454L1067.2 164.026M1055.71 174.454L988.568 174.454M1044.96 184.215L979.969 184.215M1174.95 184.215L1239.94 184.215M1174.95 184.215L1160.83 193.37M979.969 184.215L988.568 174.454M1160.83 193.37L1223.81 193.37M1067.2 164.026L1079.49 152.858M1067.2 164.026L997.756 164.026M988.568 174.454L997.756 164.026M997.756 164.026L1007.6 152.858M1151.39 152.858L1167.23 140.87M1151.39 152.858L1079.49 152.858M1151.39 152.858L1223.29 152.858M1079.49 152.858L1092.7 140.87M1079.49 152.858L1007.6 152.858M1007.6 152.858L1018.16 140.87M1167.23 140.87L1092.7 140.87M1167.23 140.87L1241.77 140.87M1106.9 127.968L1092.7 140.87M1106.9 127.968L1122.24 114.043M1106.9 127.968L1029.52 127.968M1092.7 140.87L1018.16 140.87M1241.77 140.87L1316.31 140.87M1241.77 140.87L1223.29 152.858M1018.16 140.87L1029.52 127.968M1223.29 152.858L1295.19 152.858M1122.24 114.043L1138.84 98.9695M1122.24 114.043L1041.79 114.043M1029.52 127.968L1041.79 114.043M1041.79 114.043L1055.07 98.9695M1222.61 98.9695L1244.24 82.5979M1222.61 98.9695L1138.84 98.9695M1222.61 98.9695L1306.37 98.9695M1138.84 98.9695L1156.87 82.5979M1138.84 98.9695L1055.07 98.9695M1055.07 98.9695L1069.49 82.5978M1244.24 82.5979L1156.87 82.5979M1244.24 82.5979L1331.62 82.5979M1176.52 64.7534L1156.87 82.5979M1176.52 64.7534L1198.02 45.2279M1176.52 64.7534L1085.22 64.7534M1156.87 82.5979L1069.49 82.5978M1331.62 82.5979L1418.99 82.5979M1331.62 82.5979L1306.37 98.9695M1069.49 82.5978L1085.22 64.7534M1306.37 98.9695L1390.14 98.9696M1198.02 45.2279L1221.65 23.7718M1198.02 45.2279L1102.42 45.2279M1085.22 64.7534L1102.42 45.2279M1102.42 45.2279L1121.32 23.7718M1321.98 23.7719L1353.28 0.0842664M1321.98 23.7719L1221.65 23.7718M1321.98 23.7719L1422.31 23.7719M1221.65 23.7718L1247.74 0.0842578M1221.65 23.7718L1121.32 23.7718M1121.32 23.7718L1142.19 0.0842492M1247.74 0.0842578L1353.28 0.0842664M1247.74 0.0842578L1142.19 0.0842492M1353.28 0.0842664L1439.61 0.0847232M1422.31 23.7719L1439.61 12.5502M1422.31 23.7719L1439.61 23.7719M1080.97 315.408L1087.51 312.44M1080.97 315.408L1044.87 315.408M1080.97 315.408L1117.07 315.408M1039.2 318.271L1033.71 321.037M1039.2 318.271L1044.87 315.408M1039.2 318.271L1003.73 318.271M1033.71 321.037L998.857 321.037M1033.71 321.037L1028.42 323.708M1062.69 323.708L1028.42 323.708M1062.69 323.708L1060.53 324.687L1057 326.292M1062.69 323.708L1096.96 323.708M1044.87 315.408L1050.75 312.44M1044.87 315.408L1008.78 315.408M1003.73 318.271L998.857 321.037M1003.73 318.271L1008.78 315.408M998.857 321.037L995.311 323.049L994.149 323.708M1028.42 323.708L1027.77 324.036L1023.3 326.292M1028.42 323.708L994.149 323.708M1008.78 315.408L1014 312.44M959.881 323.708L955.898 326.292M959.881 323.708L994.149 323.708M994.149 323.708L992.424 324.687L989.597 326.292M1087.51 312.44L1050.75 312.44M1087.51 312.44L1124.26 312.44M1056.85 309.363L1050.75 312.44M1056.85 309.363L1063.18 306.171M1056.85 309.363L1019.43 309.363M1050.75 312.44L1014 312.44M1124.26 312.44L1161.01 312.44M1124.26 312.44L1117.07 315.408M1014 312.44L1019.43 309.363M1117.07 315.408L1153.16 315.408M1063.18 306.171L1064.8 305.354L1069.75 302.857M1063.18 306.171L1025.05 306.171M1019.43 309.363L1025.05 306.171M1025.05 306.171L1030.89 302.857M1108.61 302.857L1109.55 302.433L1116.2 299.412M1108.61 302.857L1069.75 302.857M1108.61 302.857L1147.48 302.857M1069.75 302.857L1076.58 299.412M1069.75 302.857L1030.89 302.857M1030.89 302.857L1031.64 302.433L1036.96 299.412M1116.2 299.412L1076.58 299.412M1116.2 299.412L1155.82 299.412M1083.68 295.831L1076.58 299.412M1083.68 295.831L1091.07 292.105M1083.68 295.831L1043.27 295.831M1076.58 299.412L1036.96 299.412M1155.82 299.412L1195.44 299.412M1155.82 299.412L1147.48 302.857M1036.96 299.412L1043.27 295.831M1147.48 302.857L1186.34 302.857M1091.07 292.105L1098.76 288.223M1091.07 292.105L1049.84 292.105M1043.27 295.831L1049.84 292.105M1049.84 292.105L1056.67 288.223M1140.84 288.223L1149.75 284.178M1140.84 288.223L1098.76 288.223M1140.84 288.223L1182.93 288.223M1098.76 288.223L1106.78 284.178M1098.76 288.223L1056.67 288.223M1056.67 288.223L1063.8 284.178M1149.75 284.178L1106.78 284.178M1149.75 284.178L1192.73 284.178M1115.14 279.957L1106.78 284.178M1115.14 279.957L1123.88 275.55M1115.14 279.957L1071.24 279.957M1106.78 284.178L1063.8 284.178M1192.73 284.178L1235.7 284.178M1192.73 284.178L1182.93 288.223M1063.8 284.178L1071.24 279.957M1182.93 288.223L1225.01 288.223M1123.88 275.55L1133.01 270.944M1123.88 275.55L1079 275.55M1071.24 279.957L1079 275.55M1079 275.55L1087.12 270.944M1178.9 270.944L1189.52 266.124M1178.9 270.944L1133.01 270.944M1178.9 270.944L1224.79 270.944M1133.01 270.944L1142.57 266.124M1133.01 270.944L1087.12 270.944M1087.12 270.944L1095.61 266.124M1189.52 266.124L1142.57 266.124M1189.52 266.124L1236.47 266.124M1152.57 261.076L1142.57 266.124M1152.57 261.076L1163.06 255.784M1152.57 261.076L1104.51 261.076M1142.57 266.124L1095.61 266.124M1236.47 266.124L1283.42 266.124M1236.47 266.124L1224.79 270.944M1095.61 266.124L1104.51 261.076M1224.79 270.944L1270.68 270.944M1163.06 255.784L1174.08 250.228M1163.06 255.784L1113.83 255.784M1104.51 261.076L1113.83 255.784M1113.83 255.784L1123.62 250.228M1224.53 250.228L1237.39 244.389M1224.53 250.228L1174.08 250.228M1224.53 250.228L1274.98 250.228M1174.08 250.228L1185.65 244.389M1174.08 250.228L1123.62 250.228M1123.62 250.228L1133.91 244.389M1237.39 244.389L1185.65 244.389M1237.39 244.389L1289.13 244.389M1197.83 238.245L1185.65 244.389M1197.83 238.245L1210.66 231.77M1197.83 238.245L1144.74 238.244M1185.65 244.389L1133.91 244.389M1289.13 244.389L1340.87 244.389M1289.13 244.389L1274.98 250.228M1133.91 244.389L1144.74 238.244M1274.98 250.228L1325.43 250.228M1210.66 231.77L1224.21 224.938M1210.66 231.77L1156.15 231.77M1144.74 238.244L1156.15 231.77M1156.15 231.77L1168.18 224.938M1280.23 224.938L1296.13 217.718M1280.23 224.938L1224.21 224.938M1280.23 224.938L1336.25 224.938M1224.21 224.938L1238.52 217.718M1224.21 224.938L1168.18 224.938M1168.18 224.938L1180.91 217.718M1296.13 217.718L1238.52 217.718M1296.13 217.718L1353.75 217.718M1253.67 210.076L1238.52 217.718M1253.67 210.076L1269.73 201.975M1253.67 210.076L1194.37 210.076M1238.52 217.718L1180.91 217.718M1353.75 217.718L1411.36 217.718M1353.75 217.718L1336.25 224.938M1180.91 217.718L1194.37 210.076M1336.25 224.938L1392.28 224.938M1269.73 201.975L1286.78 193.37M1269.73 201.975L1208.65 201.975M1194.37 210.076L1208.65 201.975M1208.65 201.975L1223.81 193.37M1349.76 193.37L1369.92 184.215M1349.76 193.37L1286.78 193.37M1349.76 193.37L1412.73 193.37M1286.78 193.37L1304.93 184.215M1286.78 193.37L1223.81 193.37M1223.81 193.37L1239.94 184.215M1369.92 184.215L1304.93 184.215M1369.92 184.215L1434.91 184.215M1324.28 174.454L1304.93 184.215M1324.28 174.454L1344.95 164.026M1324.28 174.454L1257.14 174.454M1304.93 184.215L1239.94 184.215M1434.91 184.215L1412.73 193.37M1434.91 184.215L1439.61 184.215M1434.91 184.215L1439.61 182.276M1239.94 184.215L1257.14 174.454M1412.73 193.37L1439.61 193.37M1344.95 164.026L1367.09 152.858M1344.95 164.026L1275.51 164.026M1257.14 174.454L1275.51 164.026M1275.51 164.026L1295.19 152.858M1438.99 152.858L1367.09 152.858M1438.99 152.858L1439.61 152.858M1438.99 152.858L1439.61 152.575M1367.09 152.858L1390.85 140.87M1367.09 152.858L1295.19 152.858M1295.19 152.858L1316.31 140.87M1416.43 127.968L1390.85 140.87M1416.43 127.968L1339.05 127.968M1416.43 127.968L1439.61 127.968M1416.43 127.968L1439.61 116.272M1390.85 140.87L1316.31 140.87M1390.85 140.87L1439.61 140.87M1316.31 140.87L1339.05 127.968M1339.05 127.968L1363.58 114.043M1363.58 114.043L1390.14 98.9696M1363.58 114.043L1439.61 114.043M1390.14 98.9696L1418.99 82.5979M1390.14 98.9696L1439.61 98.9696M1418.99 82.5979L1439.61 82.5979M1418.99 82.5979L1439.61 70.8936M1225.36 315.408L1234.51 312.44M1225.36 315.408L1189.26 315.408M1225.36 315.408L1261.45 315.408M1181.06 318.271L1173.14 321.037M1181.06 318.271L1189.26 315.408M1181.06 318.271L1145.59 318.271M1173.14 321.037L1138.29 321.037M1173.14 321.037L1165.49 323.708M1199.76 323.708L1165.49 323.708M1199.76 323.708L1191.8 326.292M1199.76 323.708L1234.03 323.708M1189.26 315.408L1197.76 312.44M1189.26 315.408L1153.16 315.408M1145.59 318.271L1138.29 321.037M1145.59 318.271L1153.16 315.408M1138.29 321.037L1131.22 323.708M1165.49 323.708L1164.55 324.036L1158.1 326.292M1165.49 323.708L1131.22 323.708M1153.16 315.408L1161.01 312.44M1096.96 323.708L1090.7 326.292M1096.96 323.708L1131.22 323.708M1131.22 323.708L1130.36 324.036L1124.4 326.292M1234.51 312.44L1197.76 312.44M1234.51 312.44L1271.26 312.44M1206.57 309.363L1197.76 312.44M1206.57 309.363L1215.71 306.171M1206.57 309.363L1169.14 309.363M1197.76 312.44L1161.01 312.44M1271.26 312.44L1308.01 312.44M1271.26 312.44L1261.45 315.408M1161.01 312.44L1169.14 309.363M1261.45 315.408L1297.55 315.408M1215.71 306.171L1225.2 302.857M1215.71 306.171L1177.58 306.171M1169.14 309.363L1170.18 308.971L1177.58 306.171M1177.58 306.171L1186.34 302.857M1264.06 302.857L1274.68 299.412M1264.06 302.857L1225.2 302.857M1264.06 302.857L1302.92 302.857M1225.2 302.857L1235.06 299.412M1225.2 302.857L1186.34 302.857M1186.34 302.857L1195.44 299.412M1274.68 299.412L1235.06 299.412M1274.68 299.412L1314.3 299.412M1245.31 295.831L1235.06 299.412M1245.31 295.831L1255.98 292.105M1245.31 295.831L1204.9 295.831M1235.06 299.412L1195.44 299.412M1314.3 299.412L1353.92 299.412M1314.3 299.412L1302.92 302.857M1195.44 299.412L1204.9 295.831M1302.92 302.857L1341.78 302.857M1255.98 292.105L1267.1 288.223M1255.98 292.105L1214.75 292.105M1204.9 295.831L1214.75 292.105M1214.75 292.105L1225.01 288.223M1309.18 288.223L1321.66 284.178M1309.18 288.223L1267.1 288.223M1309.18 288.223L1351.27 288.223M1267.1 288.223L1278.68 284.178M1267.1 288.223L1225.01 288.223M1225.01 288.223L1235.7 284.178M1321.66 284.178L1278.68 284.178M1321.66 284.178L1364.63 284.178M1290.76 279.957L1278.68 284.178M1290.76 279.957L1303.38 275.55M1290.76 279.957L1246.86 279.957M1278.68 284.178L1235.7 284.178M1364.63 284.178L1407.61 284.178M1364.63 284.178L1351.27 288.223M1235.7 284.178L1246.86 279.957M1351.27 288.223L1393.35 288.223M1303.38 275.55L1316.57 270.944M1303.38 275.55L1258.51 275.55M1246.86 279.957L1258.51 275.55M1258.51 275.55L1270.68 270.944M1362.46 270.944L1377.32 266.124M1362.46 270.944L1316.57 270.944M1362.46 270.944L1408.35 270.944M1316.57 270.944L1330.37 266.124M1316.57 270.944L1270.68 270.944M1270.68 270.944L1283.42 266.124M1377.32 266.124L1330.37 266.124M1344.83 261.076L1330.37 266.124M1344.83 261.076L1359.98 255.784M1344.83 261.076L1296.76 261.076M1330.37 266.124L1283.42 266.124M1283.42 266.124L1296.76 261.076M1408.35 270.944L1439.61 270.944M1359.98 255.784L1375.89 250.228M1359.98 255.784L1310.75 255.784M1296.76 261.076L1310.75 255.784M1310.75 255.784L1325.43 250.228M1426.34 250.228L1375.89 250.228M1426.34 250.228L1439.61 250.228M1426.34 250.228L1439.61 245.924M1375.89 250.228L1392.61 244.389M1375.89 250.228L1325.43 250.228M1325.43 250.228L1340.87 244.389M1410.2 238.245L1392.61 244.389M1410.2 238.245L1428.74 231.77M1410.2 238.245L1357.11 238.245M1410.2 238.245L1439.61 238.245M1392.61 244.389L1340.87 244.389M1392.61 244.389L1439.61 244.389M1340.87 244.389L1357.11 238.245M1439.76 245.877L1439.61 245.924M1428.74 231.77L1374.22 231.77M1428.74 231.77L1439.61 231.77M1428.74 231.77L1439.61 227.972M1357.11 238.245L1374.22 231.77M1374.22 231.77L1392.28 224.938M1392.28 224.938L1411.36 217.718M1392.28 224.938L1439.61 224.938M1431.56 210.076L1411.36 217.718M1431.56 210.076L1439.61 210.076M1431.56 210.076L1439.61 207.028M1411.36 217.718L1439.61 217.718M1369.74 315.408L1381.51 312.44M1369.74 315.408L1333.65 315.408M1369.74 315.408L1405.84 315.408M1322.93 318.271L1312.57 321.037M1322.93 318.271L1333.65 315.408M1322.93 318.271L1287.46 318.271M1312.57 321.037L1277.71 321.037M1312.57 321.037L1302.57 323.708M1336.84 323.708L1302.57 323.708M1336.84 323.708L1326.6 326.292M1336.84 323.708L1371.1 323.708M1333.65 315.408L1344.76 312.44M1333.65 315.408L1297.55 315.408M1287.46 318.271L1277.71 321.037M1287.46 318.271L1297.55 315.408M1277.71 321.037L1268.3 323.708M1302.57 323.708L1268.3 323.708M1302.57 323.708L1292.89 326.292M1297.55 315.408L1308.01 312.44M1234.03 323.708L1225.5 326.292M1234.03 323.708L1268.3 323.708M1268.3 323.708L1259.2 326.292M1381.51 312.44L1344.76 312.44M1381.51 312.44L1418.26 312.44M1356.28 309.363L1344.76 312.44M1356.28 309.363L1368.23 306.171M1356.28 309.363L1318.85 309.363M1344.76 312.44L1308.01 312.44M1418.26 312.44L1405.84 315.408M1418.26 312.44L1439.61 312.44M1308.01 312.44L1318.85 309.363M1405.84 315.408L1439.61 315.408M1368.23 306.171L1380.64 302.857M1368.23 306.171L1330.1 306.171M1318.85 309.363L1330.1 306.171M1330.1 306.171L1341.78 302.857M1419.5 302.857L1433.16 299.412M1419.5 302.857L1380.64 302.857M1419.5 302.857L1439.61 302.857M1380.64 302.857L1393.54 299.412M1380.64 302.857L1341.78 302.857M1341.78 302.857L1353.92 299.412M1406.95 295.831L1393.54 299.412M1406.95 295.831L1420.9 292.105M1406.95 295.831L1366.54 295.831M1406.95 295.831L1439.61 295.831M1393.54 299.412L1433.16 299.412M1393.54 299.412L1353.92 299.412M1433.16 299.412L1439.61 297.785M1433.16 299.412L1439.61 299.412M1353.92 299.412L1366.54 295.831M1420.9 292.105L1435.43 288.223M1420.9 292.105L1379.67 292.105M1420.9 292.105L1439.61 292.105M1366.54 295.831L1379.67 292.105M1379.67 292.105L1393.35 288.223M1435.43 288.223L1393.35 288.223M1435.43 288.223L1439.61 287.108M1435.43 288.223L1439.61 288.223M1393.35 288.223L1407.61 284.178M1422.48 279.957L1407.61 284.178M1422.48 279.957L1438.01 275.55M1422.48 279.957L1439.61 279.957M1407.61 284.178L1439.61 284.178M1439.84 284.178L1439.61 284.178M1438.01 275.55L1439.61 275.55M1438.01 275.55L1439.61 275.096M1440 274.986L1439.61 275.096M1429.32 318.271L1417.14 321.037M1429.32 318.271L1439.61 318.271M1429.32 318.271L1439.61 315.936M1417.14 321.037L1405.37 323.708M1417.14 321.037L1439.61 321.037M1371.1 323.708L1360.29 326.292M1371.1 323.708L1405.37 323.708M1405.37 323.708L1393.99 326.292M1405.37 323.708L1439.61 323.708M248.204 326.292L214.504 326.292M248.204 326.292L281.904 326.292M222.76 328.79L220.722 328.173L214.504 326.292M222.76 328.79L189.61 328.79M214.504 326.292L180.805 326.292M189.61 328.79L187.436 328.173L186.342 327.863L180.805 326.292M180.805 326.292L147.105 326.292M147.105 326.292L113.405 326.292M281.904 326.292L315.603 326.292M113.405 326.292L79.7053 326.292M79.7053 326.292L90.1629 328.79M79.7053 326.292L46.0057 326.292M90.1629 328.79L57.0135 328.79M383.003 326.292L349.303 326.292M383.003 326.292L416.703 326.292M355.357 328.79L353.863 328.173L353.11 327.863L349.303 326.292M355.357 328.79L322.208 328.79M349.303 326.292L315.603 326.292M322.208 328.79L315.603 326.292M416.703 326.292L450.402 326.292M517.802 326.292L484.102 326.292M517.802 326.292L551.501 326.292M487.955 328.79L487.48 328.483L487.004 328.173L486.525 327.863L484.102 326.292M487.955 328.79L454.806 328.79M484.102 326.292L450.402 326.292M454.806 328.79L450.402 326.292M551.501 326.292L585.202 326.292M652.601 326.292L618.901 326.292M652.601 326.292L686.3 326.292M620.552 328.79L618.901 326.292M620.552 328.79L587.402 328.79M618.901 326.292L585.202 326.292M587.402 328.79L587.131 328.483L586.859 328.173L586.585 327.863L585.202 326.292M686.3 326.292L720 326.292M787.399 326.292L753.7 326.292M787.399 326.292L821.099 326.292M753.149 328.79L753.7 326.292M753.149 328.79L720 328.79M753.7 326.292L720 326.292M720 328.79L720 326.292M821.099 326.292L854.799 326.292M922.198 326.292L888.499 326.292M922.198 326.292L955.898 326.292M885.747 328.79L886.426 328.173L887.802 326.924L888.499 326.292M885.747 328.79L852.598 328.79M888.499 326.292L854.799 326.292M852.598 328.79L852.869 328.483L853.141 328.173L853.415 327.863L854.799 326.292M955.898 326.292L989.597 326.292M1057 326.292L1023.3 326.292M1057 326.292L1090.7 326.292M1018.34 328.79L1019.57 328.173L1020.18 327.863L1023.3 326.292M1018.34 328.79L985.194 328.79M1023.3 326.292L989.597 326.292M985.194 328.79L985.737 328.483L989.597 326.292M1090.7 326.292L1124.4 326.292M1191.8 326.292L1158.1 326.292M1191.8 326.292L1225.5 326.292M1150.94 328.79L1152.71 328.173L1153.6 327.863L1158.1 326.292M1150.94 328.79L1117.79 328.79M1158.1 326.292L1124.4 326.292M1117.79 328.79L1118.61 328.483L1124.4 326.292M1225.5 326.292L1259.2 326.292M1326.6 326.292L1292.89 326.292M1326.6 326.292L1360.29 326.292M1283.54 328.79L1292.89 326.292M1283.54 328.79L1250.39 328.79M1292.89 326.292L1259.2 326.292M1250.39 328.79L1252.56 328.173L1253.66 327.863L1259.2 326.292M1360.29 326.292L1393.99 326.292M1416.14 328.79L1427.69 326.292M1416.14 328.79L1382.99 328.79M1416.14 328.79L1439.61 328.79M1427.69 326.292L1393.99 326.292M1427.69 326.292L1439.61 323.715M1427.69 326.292L1439.61 326.292M1382.99 328.79L1385.7 328.173L1393.99 326.292M57.0135 328.79L54.2955 328.173L46.0057 326.292M46.0057 326.292L12.306 326.292M12.306 326.292L0.387444 323.715M12.306 326.292L0.387443 326.292M0.387454 207.028L0.387454 210.076M0.387454 207.028L0.387455 201.975M0.387454 210.076L0.387453 217.718M0.387455 201.975L0.387455 200.465L0.387456 193.37M0.387456 193.37L0.387457 184.215M0.387449 266.124L0.387448 270.944M0.387449 266.124L0.387449 261.482M0.387443 328.79L0.387443 326.292M0.387443 326.292L0.387444 323.715M0.387444 323.715L0.358315 323.708L0.387444 323.708M0.387444 323.715L0.387444 323.708M0.387444 323.708L0.387444 321.037M0.387444 321.037L0.387444 318.271M0.387444 318.271L0.387444 315.936M0.387444 315.936L0.387444 315.407M0.387444 315.407L0.387445 312.44M0.387445 312.44L0.387445 309.363M0.387445 309.363L0.387445 307.338M0.387445 307.338L0.387445 306.171M0.387445 306.171L0.387445 302.856M0.387445 302.856L0.387446 299.412M0.387446 299.412L0.387446 297.784M0.387446 297.784L0.387446 295.831M0.387446 295.831L0.387446 292.104M0.387446 292.104L0.387447 288.223M0.387447 288.223L0.387447 287.107M0.387447 287.107L0.387447 284.178M0.387447 284.178L0.387448 279.957M0.387448 279.957L0.387448 275.55M0.387448 275.55L0.387448 275.095M0.387448 275.095L0.387448 270.944M0.387449 261.076L0.38745 255.784M0.387449 261.076L0.387449 261.482M0.38745 255.784L0.38745 250.228M0.38745 250.228L0.387451 245.924M0.387451 245.924L0.387451 244.389M0.387451 244.389L0.387452 238.244M0.387452 238.244L0.387452 231.77M0.387452 231.77L0.387453 227.972M0.387453 227.972L0.387453 224.938M0.387453 224.938L0.387453 217.718M0.387457 184.215L0.387457 182.276M0.387457 182.276L0.387458 174.454M0.387458 174.454L0.387459 164.026M0.387459 164.026L0.38746 152.858M0.38746 152.858L0.38746 152.575M0.38746 152.575L0.387461 140.87M0.387461 140.87L0.387462 127.968M0.387462 127.968L0.387463 116.272M0.387463 116.272L0.387463 114.043M0.387463 114.043L0.387465 98.9694M0.387465 98.9694L0.387466 82.5978M0.387466 82.5978L0.387467 70.8935M0.387467 70.8935L0.387468 64.7533M0.387468 64.7533L0.38747 45.2278M0.38747 45.2278L0.387472 23.7717M0.387472 23.7717L0.387473 12.5501M0.387473 12.5501L0.387474 0.0846061M0.387474 0.0846061L0.387474 3.31902e-05L1439.61 0.000150311L1439.61 0.0847232M1439.61 261.076L1439.61 255.784M1439.61 261.076L1439.61 261.482M1439.61 261.482L1439.61 266.124M1439.61 266.124L1439.61 270.944M1439.61 270.944L1439.61 275.096M1439.61 275.096L1439.61 275.55M1439.61 275.55L1439.61 279.957M1439.61 279.957L1439.61 284.178M1439.61 284.178L1439.61 287.108M1439.61 287.108L1439.61 288.223M1439.61 288.223L1439.61 292.105M1439.61 292.105L1439.61 295.831M1439.61 295.831L1439.61 297.785M1439.61 297.785L1439.61 299.412M1439.61 299.412L1439.61 302.857M1439.61 302.857L1439.61 306.171M1439.61 306.171L1439.61 307.338M1439.61 307.338L1439.61 309.363M1439.61 309.363L1439.61 312.44M1439.61 312.44L1439.61 315.408M1439.61 315.408L1439.61 315.936M1439.61 315.936L1439.61 318.271M1439.61 318.271L1439.61 321.037M1439.61 321.037L1439.61 323.708M1439.61 323.708L1439.64 323.708L1439.61 323.715M1439.61 323.708L1439.61 323.715M1439.61 323.715L1439.61 326.292M1439.61 326.292L1439.61 328.79M1439.61 0.0847232L1439.61 12.5502M1439.61 12.5502L1439.61 23.7719M1439.61 23.7719L1439.61 45.2275M1439.61 45.2275L1439.61 64.7534M1439.61 64.7534L1439.61 70.8936M1439.61 70.8936L1439.61 82.5979M1439.61 82.5979L1439.61 98.9696M1439.61 98.9696L1439.61 114.043M1439.61 114.043L1439.61 116.272M1439.61 116.272L1439.61 127.968M1439.61 127.968L1439.61 140.87M1439.61 140.87L1439.61 152.575M1439.61 152.575L1439.61 152.858M1439.61 152.858L1439.61 164.026M1439.61 164.026L1439.61 174.454M1439.61 174.454L1439.61 182.276M1439.61 182.276L1439.61 184.215M1439.61 184.215L1439.61 193.37M1439.61 193.37L1439.61 201.975M1439.61 201.975L1439.61 207.028M1439.61 207.028L1439.61 210.076M1439.61 210.076L1439.61 217.718M1439.61 217.718L1439.61 224.938M1439.61 224.938L1439.61 227.972M1439.61 227.972L1439.61 231.77M1439.61 231.77L1439.61 238.245M1439.61 238.245L1439.61 244.389M1439.61 244.389L1439.61 245.924M1439.61 245.924L1439.61 250.228M1439.61 250.228L1439.61 255.784" stroke="url(#paint0_linear_55_2139)" stroke-width="0.870405" stroke-miterlimit="10" stroke-linecap="round" stroke-linejoin="round"/>
<defs>
<linearGradient id="paint0_linear_55_2139" x1="720" y1="331.209" x2="720" y2="98.991" gradientUnits="userSpaceOnUse">
<stop stop-color="white"/>
<stop offset="1" stop-color="#E8E8E8"/>
</linearGradient>
</defs>
</svg>
